<?xml version="1.0" encoding="UTF-8"?>
<svg version="1.1" xmlns="http://www.w3.org/2000/svg" width="1688" height="1250">
<path d="M0 0 C557.04 0 1114.08 0 1688 0 C1688 412.5 1688 825 1688 1250 C1130.96 1250 573.92 1250 0 1250 C0 837.5 0 425 0 0 Z " fill="#FEFEFE" transform="translate(0,0)"/>
<path d="M0 0 C32.69691537 -1.08359994 62.09673891 2.26003218 93.17114258 13.2578125 C94.18821289 13.61294922 95.2052832 13.96808594 96.25317383 14.33398438 C103.613351 16.91641671 103.613351 16.91641671 105.92114258 18.0703125 C104.59682866 22.04325425 102.06494768 23.27540314 98.73364258 25.5078125 C91.0031099 30.85818117 83.89827878 36.77729959 76.92114258 43.0703125 C76.17219727 43.74578125 75.42325195 44.42125 74.65161133 45.1171875 C43.28378458 75.01564558 23.90925789 120.36195468 22.58520508 163.40234375 C22.55550863 165.89569049 22.54293073 168.38929099 22.54614258 170.8828125 C22.54602173 171.54207733 22.54590088 172.20134216 22.54577637 172.88058472 C22.59296398 191.19404177 24.86824922 209.71586302 30.92114258 227.0703125 C31.12964844 227.68455078 31.3381543 228.29878906 31.55297852 228.93164062 C35.14188942 239.42230326 39.64296771 249.32542733 44.92114258 259.0703125 C45.25984375 259.6979248 45.59854492 260.32553711 45.94750977 260.97216797 C53.99755053 275.65412741 64.80156418 288.0891807 76.26489258 300.203125 C77.14145508 301.14929688 78.01801758 302.09546875 78.92114258 303.0703125 C80.31139648 304.41996094 80.31139648 304.41996094 81.72973633 305.796875 C84.78030818 310.35370068 84.53568294 313.95878529 84.48364258 319.3203125 C84.89883327 341.05153284 89.2228228 361.45576557 95.92114258 382.0703125 C96.22270264 383.02768311 96.5242627 383.98505371 96.83496094 384.97143555 C99.27660459 392.56662239 102.23630218 399.84845195 105.48364258 407.1328125 C106.26819824 408.89347046 106.26819824 408.89347046 107.06860352 410.68969727 C115.22623436 428.67356526 125.57896611 445.13550142 137.45239258 460.890625 C138.92114258 463.0703125 138.92114258 463.0703125 138.92114258 465.0703125 C135.86180207 464.46282874 133.80196459 463.50526901 131.26879883 461.69921875 C130.58116455 461.21227539 129.89353027 460.72533203 129.18505859 460.22363281 C128.09535767 459.43617676 128.09535767 459.43617676 126.98364258 458.6328125 C126.22946045 458.09366211 125.47527832 457.55451172 124.69824219 456.99902344 C114.51828565 449.68194415 104.66586709 441.95594808 94.92114258 434.0703125 C94.03813477 433.36261719 93.15512695 432.65492188 92.24536133 431.92578125 C86.5630272 427.33651281 81.08715855 422.58137547 75.72192383 417.625 C74.24782469 416.28042422 72.76877571 414.94030732 71.25097656 413.64526367 C65.21531724 408.49214384 59.61791024 402.91895558 54.02099609 397.30053711 C52.36186938 395.63604973 50.69746206 393.97697803 49.0324707 392.31835938 C43.45229795 386.74198985 38.01071796 381.10358177 32.92114258 375.0703125 C32.03276594 374.04865557 31.14349231 373.02777766 30.25317383 372.0078125 C-8.39104357 326.95284896 -38.10223217 273.09939994 -49.57617188 214.55957031 C-50.0685929 212.12114158 -50.61559931 209.70081705 -51.17651367 207.27734375 C-52.99184532 199.13266379 -53.48515253 192.5379791 -48.89135742 185.2578125 C-47.24964094 182.95082528 -45.60038457 180.68299066 -43.7644043 178.52612305 C-39.86097154 173.67429132 -39.25442337 169.62832365 -38.95385742 163.5078125 C-38.81565778 161.62862841 -38.67360839 159.7497242 -38.52807617 157.87109375 C-38.45766113 156.91025879 -38.38724609 155.94942383 -38.31469727 154.95947266 C-36.18893795 128.91782081 -31.38542441 99.35569587 -19.07885742 76.0703125 C-25.91982042 80.11506439 -31.94952752 84.46696772 -37.75463867 89.8984375 C-39.77112619 91.78275189 -41.83441304 93.55483718 -43.95385742 95.3203125 C-52.07578847 102.38573219 -59.18093566 110.83112817 -66.07885742 119.0703125 C-69.46441474 113.99197652 -69.43473687 108.03875785 -70.07885742 102.0703125 C-70.17199219 101.23129395 -70.26512695 100.39227539 -70.36108398 99.52783203 C-72.06752761 83.32818667 -72.29049775 67.15730102 -72.32885742 50.8828125 C-72.33403381 49.8735672 -72.33921021 48.8643219 -72.34454346 47.82449341 C-72.38363277 38.15696001 -72.35181129 28.46851453 -71.50073242 18.83203125 C-71.39857422 17.58768311 -71.29641602 16.34333496 -71.19116211 15.0612793 C-70.07885742 12.0703125 -70.07885742 12.0703125 -66.98583984 10.25732422 C-63.12014791 8.94621042 -59.15255985 8.07144226 -55.14526367 7.31640625 C-54.39962662 7.17042999 -53.65398956 7.02445374 -52.88575745 6.87405396 C-50.47298661 6.40707815 -48.05784248 5.95515179 -45.64135742 5.5078125 C-44.80852234 5.35279266 -43.97568726 5.19777283 -43.11761475 5.03805542 C-28.72986764 2.38143395 -14.63637858 0.49504134 0 0 Z " fill="#000001" transform="translate(626.078857421875,368.9296875)"/>
<path d="M0 0 C1.87612221 -0.01210762 1.87612221 -0.01210762 3.79014587 -0.02445984 C6.42982637 -0.03821539 9.06952402 -0.04897518 11.70922852 -0.05688477 C14.35321764 -0.06564902 16.99592524 -0.08864157 19.63989258 -0.1184082 C53.2530706 -0.49532726 111.55019607 2.40700946 139.046875 25.47265625 C142.93492636 29.74856675 145.73389766 34.8614917 147.80859375 40.23046875 C150.37411926 44.41575401 153.61882541 46.02057417 157.83984375 48.36328125 C166.98350204 53.69608447 175.36616694 59.66425358 183.65234375 66.23828125 C184.19632813 66.66512207 184.7403125 67.09196289 185.30078125 67.53173828 C192.86668156 73.51435162 199.74666139 80.13750645 206.58984375 86.92578125 C207.39526611 87.72185791 208.20068848 88.51793457 209.03051758 89.33813477 C213.69127694 94.02421641 217.86560815 98.81816129 221.65234375 104.23828125 C222.69802328 87.15884892 216.09913681 67.1835883 209.47265625 51.609375 C209.20195313 50.82691406 208.93125 50.04445313 208.65234375 49.23828125 C208.98234375 48.57828125 209.31234375 47.91828125 209.65234375 47.23828125 C239.92576876 59.55955774 268.22252104 74.01272685 295.36328125 92.234375 C296.11915527 92.74154053 296.8750293 93.24870605 297.65380859 93.77124023 C298.3133252 94.25536377 298.9728418 94.7394873 299.65234375 95.23828125 C300.23580566 95.65086182 300.81926758 96.06344238 301.42041016 96.48852539 C303.43189244 99.34549993 302.92901154 101.83781515 302.65234375 105.23828125 C301.89306641 108.421875 301.89306641 108.421875 300.81640625 111.67578125 C300.41687744 112.88886963 300.01734863 114.10195801 299.60571289 115.35180664 C299.16420827 116.6477367 298.72138749 117.94321901 298.27734375 119.23828125 C298.0530368 119.90101044 297.82872986 120.56373962 297.59762573 121.24655151 C293.30687862 133.89171495 288.40692794 146.18084668 282.65234375 158.23828125 C282.23936035 159.10678711 281.82637695 159.97529297 281.40087891 160.87011719 C271.75345192 180.85273814 259.62411796 199.82460262 244.65234375 216.23828125 C243.92144531 217.08777344 243.19054688 217.93726563 242.4375 218.8125 C234.5275869 227.92391889 225.09339643 237.99009224 214.65234375 244.23828125 C213.99234375 244.23828125 213.33234375 244.23828125 212.65234375 244.23828125 C212.56597656 242.96597656 212.47960937 241.69367188 212.390625 240.3828125 C209.03092092 196.39854585 189.47353293 158.34931174 159.65234375 126.23828125 C158.78609375 125.27341797 158.78609375 125.27341797 157.90234375 124.2890625 C141.67795151 107.01443058 120.09545342 95.19434136 98.07617188 87.12866211 C96.40731474 86.51561598 94.74478431 85.88515906 93.08789062 85.24047852 C85.90191582 82.49608941 78.66330972 80.67717152 71.15234375 79.05078125 C70.00636719 78.79103516 68.86039063 78.53128906 67.6796875 78.26367188 C55.45163239 75.57183039 43.5150129 75.00067831 31.02734375 74.98828125 C30.31891327 74.98727417 29.61048279 74.98626709 28.88058472 74.98522949 C18.14965673 74.9955292 8.10944443 75.66739654 -2.34765625 78.23828125 C-3.8730556 78.58099652 -5.39913075 78.92071432 -6.92578125 79.2578125 C-14.77371914 80.95652858 -14.77371914 80.95652858 -22.3984375 83.421875 C-28.64554256 85.15120607 -33.27770957 83.01061695 -38.65234375 80.00048828 C-39.41804687 79.56333496 -40.18375 79.12618164 -40.97265625 78.67578125 C-50.3849401 73.50609924 -60.04950657 69.64594447 -70.14648438 66.03417969 C-71.9478775 65.38283302 -73.73589877 64.69460992 -75.51953125 63.99609375 C-83.5936968 60.83982903 -91.85674153 58.87114947 -100.34765625 57.23828125 C-101.27707031 57.05201172 -102.20648437 56.86574219 -103.1640625 56.67382812 C-132.39135346 51.11121468 -162.73396429 52.8600069 -192.34765625 53.23828125 C-144.63478304 16.92466285 -58.11117483 0.3682164 0 0 Z " fill="#000001" transform="translate(795.34765625,286.76171875)"/>
<path d="M0 0 C0.33 0 0.66 0 1 0 C2.38800405 27.41307997 -3.29920491 54.8986911 -9.22753906 81.52148438 C-9.84402424 84.2976161 -10.44139655 87.07591491 -11.0234375 89.859375 C-24.9509342 153.49142413 -53.64203679 215.89908478 -98 264 C-99.4799724 265.66595123 -100.95913008 267.33262656 -102.4375 269 C-129.89440642 299.47046932 -129.89440642 299.47046932 -145 302 C-147.12492247 302.02763228 -149.24994924 302.0477256 -151.375 302.0625 C-158.7788634 302.45758343 -163.80876129 305.17433835 -170.18798828 308.78027344 C-180.65346329 314.63829362 -191.7919673 318.79152864 -203 323 C-204.09006348 323.41572266 -204.09006348 323.41572266 -205.20214844 323.83984375 C-218.03299753 328.6816736 -232.00225508 332.01386426 -245.62890625 333.578125 C-248.83349184 333.6288825 -248.83349184 333.6288825 -250 335 C-232.7014818 342.22173826 -214.72795686 348.05336649 -196 350 C-197.54480972 354.40785707 -200.99838636 356.60478421 -204.625 359.25 C-205.66660278 360.01848267 -205.66660278 360.01848267 -206.72924805 360.80249023 C-222.83365428 372.5418418 -239.52424188 383.41989539 -257 393 C-257.95922363 393.53206055 -258.91844727 394.06412109 -259.90673828 394.61230469 C-262.96926356 396.30281474 -266.0444214 397.96764724 -269.125 399.625 C-270.07318604 400.14674805 -271.02137207 400.66849609 -271.99829102 401.20605469 C-277.80077757 404.27182923 -282.40352146 405.87712442 -289 406 C-293.90053802 403.31637204 -297.40661898 398.22943569 -301 394 C-301.92083293 392.94049967 -302.84278864 391.88197453 -303.765625 390.82421875 C-335.20411519 354.67814213 -369 304.81641522 -369 255 C-364.16972976 255.55960448 -360.30161063 257.097778 -356 259.25 C-345.27463606 264.38986677 -334.57694334 268.01658102 -323 270.6875 C-322.1227124 270.89004395 -321.2454248 271.09258789 -320.34155273 271.30126953 C-289.18841995 278.17324197 -255.13535296 276.95576941 -225 266 C-224.21608887 265.71640625 -223.43217773 265.4328125 -222.62451172 265.140625 C-175.33816021 247.72758977 -139.1712784 214.76304844 -118 169 C-117.6999707 168.36610352 -117.39994141 167.73220703 -117.09082031 167.07910156 C-112.1138026 156.4357736 -109.12923007 145.54980025 -106.57202148 134.08862305 C-106.30848877 132.97011963 -106.04495605 131.85161621 -105.7734375 130.69921875 C-105.43965088 129.19621216 -105.43965088 129.19621216 -105.09912109 127.6628418 C-102.89182252 122.31521728 -97.30386451 119.87002024 -92.5625 116.9375 C-81.73603569 110.09631692 -71.79661075 102.32794965 -63 93 C-60.62751845 90.60086135 -58.24393357 88.228473 -55.78125 85.921875 C-33.3198454 64.53738706 -17.58885391 35.85174351 -4.11767578 8.28369141 C-2.76203952 5.51378717 -1.38461033 2.75551165 0 0 Z " fill="#000001" transform="translate(1111,446)"/>
<path d="M0 0 C1.16039795 0.01281006 2.3207959 0.02562012 3.51635742 0.03881836 C20.97398204 0.4497438 36.38223915 5.71515304 49.21484375 17.984375 C56.1680234 25.63881551 63.5 35.79548121 63.5 46.5 C62.69071045 46.67539307 61.8814209 46.85078613 61.04760742 47.03149414 C32.97395048 53.17826902 6.00599011 60.66709433 -16.5 79.5 C-17.36882813 80.20640625 -18.23765625 80.9128125 -19.1328125 81.640625 C-37.10775701 96.92207629 -46.29439638 118.30414332 -52.5 140.5 C-52.83 140.5 -53.16 140.5 -53.5 140.5 C-55.38332487 131.25152965 -55.69267757 122.2240229 -55.6875 112.8125 C-55.68814453 111.65379395 -55.68878906 110.49508789 -55.68945312 109.30126953 C-55.6350043 100.90501289 -55.6350043 100.90501289 -54.5 97.5 C-54.32598313 95.4663089 -54.15549498 93.43222179 -54.00732422 91.39648438 C-51.70602643 61.61226937 -41.87690536 25.88913025 -19.5 4.5 C-13.27478057 -0.21163667 -7.64032562 -0.12668977 0 0 Z " fill="#FA0202" transform="translate(766.5,466.5)"/>
<path d="M0 0 C35.98782528 11.07317701 71.48105892 41.551144 90 74 C92.92674231 79.58924929 95.61585913 85.29710747 98.1484375 91.07519531 C98.82695719 92.60886769 99.56070522 94.11807291 100.3125 95.6171875 C101.86858543 101.01043815 99.95849159 105.69897853 97.4230957 110.49243164 C97.07722412 111.1136792 96.73135254 111.73492676 96.375 112.375 C96.01817139 113.02911865 95.66134277 113.6832373 95.29370117 114.35717773 C92.33582835 119.6564542 88.92948704 124.37476838 85 129 C84.2575 130.010625 83.515 131.02125 82.75 132.0625 C74.16520555 142.23392313 60.19208059 149.06178528 47.03222656 150.27319336 C44.05743073 150.36367305 41.10063885 150.36131297 38.125 150.3125 C37.11953125 150.31572266 36.1140625 150.31894531 35.078125 150.32226562 C30.16789007 150.28644826 26.53215527 150.04063769 22 148 C22.39435985 146.66623011 22.79065933 145.33303387 23.1875 144 C23.45949219 143.08605469 23.73148438 142.17210937 24.01171875 141.23046875 C24.72055796 138.91343308 25.45540977 136.60429432 26.20703125 134.30078125 C29.14389768 125.29207777 31.41503097 116.36122332 33 107 C33.20625 105.83339844 33.4125 104.66679688 33.625 103.46484375 C38.19345099 74.30924332 33.49383444 45.36066859 16.765625 20.70703125 C9.59325511 10.04458167 9.59325511 10.04458167 0 2 C0 1.34 0 0.68 0 0 Z " fill="#FA0202" transform="translate(832,416)"/>
<path d="M0 0 C4.98803338 4.12715452 9.41040832 8.45510285 13.75 13.25 C31.97088513 32.97925251 53.81658449 48.85123853 80 56 C80.63397705 56.18473877 81.2679541 56.36947754 81.92114258 56.55981445 C89.11038757 58.44265221 96.29681256 58.33093064 103.6875 58.3125 C105.59692383 58.33666992 105.59692383 58.33666992 107.54492188 58.36132812 C115.34600607 58.36529411 122.41500424 57.53715552 129.98754883 55.64526367 C132.77213688 55.04880802 135.16594828 54.87529251 138 55 C134.67248926 59.85991701 130.7158491 62.37379568 125.75 65.3125 C124.95368164 65.79033936 124.15736328 66.26817871 123.33691406 66.76049805 C115.75004114 71.25438856 107.98473416 75.26687754 100 79 C98.91074219 79.52078125 97.82148437 80.0415625 96.69921875 80.578125 C68.65757986 93.33958941 33.28812668 101.19041718 3 92 C-0.18134879 90.20719571 -1.33443213 88.19951032 -3 85 C-3.72537745 83.79899355 -4.45642416 82.60140282 -5.19140625 81.40625 C-9.90296815 73.58220175 -13.63644151 65.86660892 -16 57 C-16.22300781 56.25878906 -16.44601562 55.51757812 -16.67578125 54.75390625 C-20.57365957 40.30258866 -17.25565075 26.3329449 -10.4296875 13.359375 C-7.48953419 8.50731871 -4.01182719 4.01182719 0 0 Z " fill="#FA0202" transform="translate(797,559)"/>
<path d="M0 0 C0.33 0 0.66 0 1 0 C1.01458252 0.74757568 1.02916504 1.49515137 1.04418945 2.26538086 C2.61111371 74.82560131 25.73316501 138.25020343 78.12109375 189.4375 C84.9448463 195.93862607 92.28870139 201.5990758 100 207 C100.63357422 207.44633789 101.26714844 207.89267578 101.91992188 208.35253906 C117.6570254 219.74656951 117.6570254 219.74656951 135 228 C135.33 227.34 135.66 226.68 136 226 C136.24492188 226.75539063 136.48984375 227.51078125 136.7421875 228.2890625 C145.81008488 254.99245685 159.59709623 279.34999307 176.53125 301.8203125 C178 304 178 304 178 306 C174.94065949 305.39251624 172.88082201 304.43495651 170.34765625 302.62890625 C169.66002197 302.14196289 168.9723877 301.65501953 168.26391602 301.15332031 C167.17421509 300.36586426 167.17421509 300.36586426 166.0625 299.5625 C165.30831787 299.02334961 164.55413574 298.48419922 163.77709961 297.92871094 C153.59714307 290.61163165 143.74472452 282.88563558 134 275 C133.11699219 274.29230469 132.23398437 273.58460938 131.32421875 272.85546875 C125.64188462 268.26620031 120.16601597 263.51106297 114.80078125 258.5546875 C113.32668211 257.21011172 111.84763313 255.86999482 110.32983398 254.57495117 C104.29417467 249.42183134 98.69676767 243.84864308 93.09985352 238.23022461 C91.4407268 236.56573723 89.77631949 234.90666553 88.11132812 233.24804688 C82.53115537 227.67167735 77.08957538 222.03326927 72 216 C71.11162336 214.97834307 70.22234974 213.95746516 69.33203125 212.9375 C30.68781385 167.88253646 0.97662525 114.02908744 -10.49731445 55.48925781 C-10.98973548 53.05082908 -11.53674189 50.63050455 -12.09765625 48.20703125 C-13.9129879 40.06235129 -14.40629511 33.4676666 -9.8125 26.1875 C-8.11907574 23.76930389 -6.40906315 21.46395011 -4.45703125 19.25 C0.31688434 13.65009901 -0.10836194 7.10263265 0 0 Z " fill="#061CF4" transform="translate(587,528)"/>
<path d="M0 0 C1.87612221 -0.01210762 1.87612221 -0.01210762 3.79014587 -0.02445984 C6.42982637 -0.03821539 9.06952402 -0.04897518 11.70922852 -0.05688477 C14.35321764 -0.06564902 16.99592524 -0.08864157 19.63989258 -0.1184082 C53.21944888 -0.49495024 111.58227375 2.39530669 139.0390625 25.46875 C143.46610382 30.32456046 146.64167648 35.72121991 147.65234375 42.23828125 C141.6700373 40.02960039 135.74483237 37.7485375 129.921875 35.1484375 C99.20687227 21.45577831 67.60713984 14.77976822 34.02734375 14.92578125 C32.71506805 14.92851547 32.71506805 14.92851547 31.37628174 14.93130493 C17.60703438 14.97946671 4.20183551 15.61133897 -9.34765625 18.23828125 C-10.2180957 18.39925293 -11.08853516 18.56022461 -11.98535156 18.72607422 C-40.93655158 24.21173116 -79.83454805 34.72517305 -101.34765625 56.23828125 C-103.25195312 56.29760742 -103.25195312 56.29760742 -105.56640625 56.03125 C-106.4171875 55.93908203 -107.26796875 55.84691406 -108.14453125 55.75195312 C-109.48257813 55.59049805 -109.48257813 55.59049805 -110.84765625 55.42578125 C-111.70875 55.32974609 -112.56984375 55.23371094 -113.45703125 55.13476562 C-115.10799656 54.95063851 -116.75847078 54.76200385 -118.40820312 54.56713867 C-119.37822266 54.45861572 -120.34824219 54.35009277 -121.34765625 54.23828125 C-122.02529022 54.15341965 -122.70292419 54.06855804 -123.40109253 53.98112488 C-130.82844704 53.1248106 -138.19828135 53.11056843 -145.66796875 53.140625 C-147.02131091 53.14249466 -148.37465375 53.14391597 -149.72799683 53.14491272 C-153.25587905 53.14869476 -156.7837188 53.15848715 -160.31158447 53.1696167 C-163.92516506 53.17992459 -167.53875264 53.18443025 -171.15234375 53.18945312 C-178.21746508 53.20011417 -185.28255786 53.21713745 -192.34765625 53.23828125 C-144.63478304 16.92466285 -58.11117483 0.3682164 0 0 Z " fill="#041AF5" transform="translate(795.34765625,286.76171875)"/>
<path d="M0 0 C0.33 0 0.66 0 1 0 C2.38800405 27.41307997 -3.29920491 54.8986911 -9.22753906 81.52148438 C-9.84402424 84.2976161 -10.44139655 87.07591491 -11.0234375 89.859375 C-24.9509342 153.49142413 -53.64203679 215.89908478 -98 264 C-99.4799724 265.66595123 -100.95913008 267.33262656 -102.4375 269 C-130.07733379 299.67347409 -130.07733379 299.67347409 -145 302 C-149.34734041 302.21170514 -153.65230761 302.18143384 -158 302 C-154.46673347 298.11799547 -150.36773859 295.37690583 -146.0625 292.4375 C-138.29385202 287.04692472 -131.09612643 281.23780453 -124 275 C-123.30003906 274.41089844 -122.60007812 273.82179688 -121.87890625 273.21484375 C-110.56681161 263.64307136 -100.77707955 252.90932853 -92 241 C-91.5167627 240.35047363 -91.03352539 239.70094727 -90.53564453 239.03173828 C-82.49850776 228.16996509 -75.41380665 216.89157194 -69 205 C-68.6395459 204.33661621 -68.2790918 203.67323242 -67.90771484 202.98974609 C-56.85035377 182.2446349 -49.90154135 158.08613911 -46 135 C-45.83918945 134.07638672 -45.67837891 133.15277344 -45.51269531 132.20117188 C-43.7498346 121.6240076 -42.84305761 111.31598602 -43.27734375 100.6015625 C-44.44124069 69.96168385 -44.44124069 69.96168385 -35.39477539 59.64257812 C-34.19215128 58.35900661 -32.97250654 57.09114352 -31.73535156 55.84082031 C-28.92138826 52.85583392 -26.75629308 49.51631147 -24.5625 46.0625 C-24.12945557 45.39428223 -23.69641113 44.72606445 -23.25024414 44.03759766 C-14.39942614 30.04237194 -7.37288362 14.80222438 0 0 Z " fill="#041AF4" transform="translate(1111,446)"/>
<path d="M0 0 C-0.87140625 0.59425781 -1.7428125 1.18851563 -2.640625 1.80078125 C-24.5564493 16.9523093 -40.70810365 35.4274418 -46.34375 62.09375 C-49.19439131 79.06185304 -45.3378943 98.94003484 -36.3125 113.7734375 C-35 116 -35 116 -35 119 C-52.80874916 115.57442221 -69.3317223 110.25469186 -85 101 C-82.47593523 69.12897323 -71.22920148 42.58932529 -46.7734375 21.21875 C-36.81244825 13.2499586 -13.18258966 -4.16139144 0 0 Z " fill="#030303" transform="translate(802,527)"/>
<path d="M0 0 C2.28833928 2.77501037 3.49432152 4.9967725 4.31640625 8.4921875 C4.6254187 9.78660767 4.6254187 9.78660767 4.94067383 11.10717773 C5.14587646 12.02055908 5.3510791 12.93394043 5.5625 13.875 C5.77865967 14.81738525 5.99481934 15.75977051 6.2175293 16.73071289 C8.948729 28.89696611 10.3423181 40.48637181 10 53 C-17.53672021 64.42602498 -46.04783318 70.62134727 -75 60 C-75.69625488 59.74831055 -76.39250977 59.49662109 -77.10986328 59.23730469 C-93.1276298 53.26304976 -110.65206022 42.79725303 -121 29 C-117.48250224 30.36117729 -114.06186286 31.88396367 -110.63720703 33.46264648 C-88.72038829 43.39993739 -64.97532925 45.8422395 -41.88671875 37.93359375 C-22.94428117 30.64063494 -9.6441489 17.51872919 0 0 Z " fill="#030303" transform="translate(944,547)"/>
<path d="M0 0 C21.06059075 9.48456165 38.06502905 34.0970741 46 55 C47.64170347 59.92736395 48.89394185 64.92588011 50 70 C50.1750708 70.75804932 50.3501416 71.51609863 50.53051758 72.29711914 C51.49669555 77.85955095 51.2369119 83.55651931 51.25 89.1875 C51.25167175 89.85729889 51.25334351 90.52709778 51.25506592 91.2171936 C51.25909326 118.11136011 51.25909326 118.11136011 46 126 C45.91363281 124.69289063 45.82726562 123.38578125 45.73828125 122.0390625 C43.62038151 93.73015832 34.68040856 69.21180517 12.7890625 50.21875 C8.40411504 46.73044446 3.90414772 43.70847628 -1 41 C-2.11181641 40.38318359 -2.11181641 40.38318359 -3.24609375 39.75390625 C-11.54148571 35.82905009 -20.98179569 35.70367919 -30 35 C-27.59066021 29.6641323 -23.7885956 25.20653526 -20.23339844 20.59912109 C-19.06805753 19.08823769 -17.9126178 17.56973247 -16.7578125 16.05078125 C-11.80070212 9.7264963 -6.49286451 4.73070921 0 0 Z " fill="#020202" transform="translate(810,408)"/>
<path d="M0 0 C1.12167552 3.38872393 0.83952163 5.71766551 0.125 9.1875 C-0.99946273 15.28525762 -1.40042311 21.29308317 -1.65771484 27.4753418 C-1.90280607 32.90280607 -1.90280607 32.90280607 -3 34 C-3.08775605 36.14558827 -3.10695219 38.29404421 -3.09765625 40.44140625 C-3.09443359 41.74658203 -3.09121094 43.05175781 -3.08789062 44.39648438 C-3.07953401 45.7851569 -3.07106905 47.17382877 -3.0625 48.5625 C-3.05748666 49.95507656 -3.05292347 51.34765481 -3.04882812 52.74023438 C-3.03699434 56.1601987 -3.0205088 59.58007844 -3 63 C-1.515 62.505 -1.515 62.505 0 62 C-0.59619955 66.86896303 -1.56976822 71.32790951 -3 76 C-3.33 76 -3.66 76 -4 76 C-5.88332487 66.75152965 -6.19267757 57.7240229 -6.1875 48.3125 C-6.18814453 47.15379395 -6.18878906 45.99508789 -6.18945312 44.80126953 C-6.1350043 36.40501289 -6.1350043 36.40501289 -5 33 C-4.82273246 31.60024558 -4.68340028 30.19545767 -4.5703125 28.7890625 C-4.4986084 27.96180664 -4.4269043 27.13455078 -4.35302734 26.28222656 C-4.27777832 25.4053418 -4.2025293 24.52845703 -4.125 23.625 C-3.38337269 15.52414784 -2.15154378 7.86030661 0 0 Z " fill="#E4201F" transform="translate(717,531)"/>
<path d="M0 0 C0.33 0.66 0.66 1.32 1 2 C2.00239464 2.0154612 2.00239464 2.0154612 3.02503967 2.03123474 C10.05070738 2.14035476 17.07627359 2.25485107 24.10180664 2.37231445 C26.71539157 2.41532913 29.32899861 2.45702383 31.94262695 2.49731445 C68.70514618 3.0663502 68.70514618 3.0663502 84 6 C83.67 6.66 83.34 7.32 83 8 C79.875 7.6875 76.75 7.375 73.625 7.0625 C72.75488281 6.97548828 71.88476562 6.88847656 70.98828125 6.79882812 C70.11816406 6.71181641 69.24804688 6.62480469 68.3515625 6.53515625 C67.17327881 6.41732788 67.17327881 6.41732788 65.97119141 6.29711914 C64.29321066 6.12932107 62.61588583 5.95283233 60.94210815 5.74729919 C53.5151489 4.89081821 46.14921769 4.87228782 38.6796875 4.90234375 C37.32634534 4.90421341 35.9730025 4.90563472 34.61965942 4.90663147 C31.0917772 4.91041351 27.56393745 4.9202059 24.03607178 4.93133545 C20.42249119 4.94164334 16.80890361 4.946149 13.1953125 4.95117188 C6.13019117 4.96183292 -0.93490161 4.9788562 -8 5 C-5.41495396 3.01776932 -2.95950142 1.37405423 0 0 Z " fill="#3A49DC" transform="translate(611,335)"/>
<path d="M0 0 C1.1760003 2.3520006 1.12084541 3.73734401 1.11352539 6.35791016 C1.11341209 7.70908432 1.11341209 7.70908432 1.11329651 9.08755493 C1.10813522 10.06155243 1.10297394 11.03554993 1.09765625 12.0390625 C1.0962413 13.03505463 1.09482635 14.03104675 1.09336853 15.05722046 C1.08775936 18.24651053 1.0752053 21.43573106 1.0625 24.625 C1.05748618 26.78385315 1.05292307 28.94270741 1.04882812 31.1015625 C1.03778695 36.4010655 1.02103988 41.70052778 1 47 C0.34 47 -0.32 47 -1 47 C-1 50.3 -1 53.6 -1 57 C-1.99 57.495 -1.99 57.495 -3 58 C-2.9270874 57.00339355 -2.8541748 56.00678711 -2.77905273 54.97998047 C-2.23397648 47.02303699 -1.91816988 39.10942021 -1.97265625 31.1328125 C-1.97816498 30.31117615 -1.98367371 29.48953979 -1.98934937 28.64300537 C-2.01690233 25.27116479 -2.05252564 21.89950565 -2.09594727 18.52783203 C-2.12599714 16.02115186 -2.1438344 13.51461405 -2.16015625 11.0078125 C-2.17361588 10.24542267 -2.1870755 9.48303284 -2.20094299 8.69754028 C-2.21910041 4.90515674 -2.15877315 3.23815972 0 0 Z " fill="#1C2CCB" transform="translate(1070,515)"/>
<path d="M0 0 C2.31 0 4.62 0 7 0 C7 0.66 7 1.32 7 2 C12.28 2 17.56 2 23 2 C23 2.66 23 3.32 23 4 C23.81339844 3.855625 24.62679687 3.71125 25.46484375 3.5625 C35.06472007 2.00751441 44.29919189 1.78860224 54 2 C54 2.33 54 2.66 54 3 C46.42092009 4.61648793 39.18248798 5.35447825 31.4375 5.3125 C30.4055249 5.30976074 29.3735498 5.30702148 28.31030273 5.30419922 C19.09501139 5.18038942 9.92762388 4.38215668 1 2 C0.67 1.34 0.34 0.68 0 0 Z " fill="#E01E1C" transform="translate(799,649)"/>
<path d="M0 0 C0.33 0 0.66 0 1 0 C1.02505615 0.56920166 1.0501123 1.13840332 1.07592773 1.72485352 C1.19293894 4.33757313 1.3151828 6.95002362 1.4375 9.5625 C1.47681641 10.45775391 1.51613281 11.35300781 1.55664062 12.27539062 C1.79332783 17.2458219 2.19821672 22.08823519 3 27 C3.99 26.67 4.98 26.34 6 26 C5.40380045 30.86896303 4.43023178 35.32790951 3 40 C2.67 40 2.34 40 2 40 C-0.69544601 26.76343476 -0.19706032 13.43951357 0 0 Z " fill="#DE4241" transform="translate(711,567)"/>
<path d="M0 0 C1.56393356 3.97376829 0.36145292 6.81377903 -0.9375 10.75 C-1.31777344 11.92046875 -1.69804688 13.0909375 -2.08984375 14.296875 C-2.39019531 15.18890625 -2.69054687 16.0809375 -3 17 C-1.7934375 16.9690625 -1.7934375 16.9690625 -0.5625 16.9375 C2 17 2 17 3 18 C4.41327947 18.15620555 5.8335459 18.25056173 7.25390625 18.31640625 C8.53491211 18.37924805 8.53491211 18.37924805 9.84179688 18.44335938 C10.73962891 18.48267578 11.63746094 18.52199219 12.5625 18.5625 C13.91504883 18.62727539 13.91504883 18.62727539 15.29492188 18.69335938 C17.52978485 18.79978142 19.76476308 18.90179988 22 19 C22 19.33 22 19.66 22 20 C18.27089934 20.0582462 14.54191636 20.09367917 10.8125 20.125 C9.75740234 20.14175781 8.70230469 20.15851562 7.61523438 20.17578125 C6.08286133 20.18544922 6.08286133 20.18544922 4.51953125 20.1953125 C3.11344604 20.21102295 3.11344604 20.21102295 1.67895508 20.22705078 C-1.21630812 19.98166713 -3.37062697 19.20521619 -6 18 C-4.23536928 11.89262558 -2.30442525 5.92566493 0 0 Z " fill="#DE2423" transform="translate(860,546)"/>
<path d="M0 0 C0 0.33 0 0.66 0 1 C-0.63389648 1.10546143 -1.26779297 1.21092285 -1.92089844 1.31958008 C-17.53689596 3.84317394 -17.53689596 3.84317394 -32.890625 7.58203125 C-35 8 -35 8 -38 7 C-32.60776571 4.37113294 -27.96908169 2.62177934 -22 2 C-21.67 1.67 -21.34 1.34 -21 1 C-14.02308242 0.08258064 -7.02714983 -0.11711916 0 0 Z " fill="#1424C4" transform="translate(799,302)"/>
<path d="M0 0 C4.81981838 4.1312729 7.7847751 9.03999014 10 15 C9.67 15.66 9.34 16.32 9 17 C4.38 15.02 -0.24 13.04 -5 11 C-1.41220825 10.10305206 1.34618837 9.91695883 5 10 C5 10.66 5 11.32 5 12 C5.66 12.33 6.32 12.66 7 13 C6.66226563 12.48050781 6.32453125 11.96101563 5.9765625 11.42578125 C3.60108299 7.71151993 1.44237185 4.19599085 0 0 Z " fill="#2938CF" transform="translate(933,312)"/>
<path d="M0 0 C0.33 0 0.66 0 1 0 C1.23135477 11.22070643 0.83150372 21.91286142 -1 33 C-1.33 33 -1.66 33 -2 33 C-2.02888146 29.68751813 -2.04675799 26.37506833 -2.0625 23.0625 C-2.07087891 22.11697266 -2.07925781 21.17144531 -2.08789062 20.19726562 C-2.09111328 19.29814453 -2.09433594 18.39902344 -2.09765625 17.47265625 C-2.10289307 16.64000244 -2.10812988 15.80734863 -2.11352539 14.94946289 C-2 13 -2 13 -1 12 C-0.69476038 7.34911285 -0.69476038 7.34911285 -2 3 C-1.34 2.01 -0.68 1.02 0 0 Z " fill="#1A2BD4" transform="translate(1111,446)"/>
<path d="M0 0 C0 4.0234866 -1.76191846 5.70870362 -4 9 C-5.90587362 12.95468775 -6.36043835 16.44723275 -6.625 20.8125 C-6.69976563 21.97394531 -6.77453125 23.13539063 -6.8515625 24.33203125 C-6.90054688 25.21246094 -6.94953125 26.09289062 -7 27 C-9.5838206 24.4161794 -9.41711692 23.16893834 -9.5625 19.5625 C-9.47564385 11.56208382 -5.56004597 5.56004597 0 0 Z " fill="#3848E4" transform="translate(583,547)"/>
<path d="M0 0 C0.66 0.33 1.32 0.66 2 1 C1 4 1 4 -2 6 C-3.32 6 -4.64 6 -6 6 C-6 6.66 -6 7.32 -6 8 C-0.06 7.505 -0.06 7.505 6 7 C1.77746115 9.11126943 -0.14001523 9.2171997 -4.75 9.125 C-5.92046875 9.10695313 -7.0909375 9.08890625 -8.296875 9.0703125 C-9.63492188 9.03550781 -9.63492188 9.03550781 -11 9 C-7.58249062 5.46151684 -4.03411452 2.79284851 0 0 Z " fill="#1F2EC7" transform="translate(964,739)"/>
<path d="M0 0 C4.35970831 1.34849837 8.31341438 3.04907846 12.375 5.125 C13.43460938 5.66382813 14.49421875 6.20265625 15.5859375 6.7578125 C16.38257813 7.16773438 17.17921875 7.57765625 18 8 C16.68 8.33 15.36 8.66 14 9 C14 8.34 14 7.68 14 7 C12.68 7 11.36 7 10 7 C10 6.34 10 5.68 10 5 C9.01 5 8.02 5 7 5 C7.66 6.65 8.32 8.3 9 10 C7.88625 8.8553125 7.88625 8.8553125 6.75 7.6875 C4.176446 5.04428801 4.176446 5.04428801 1.6875 3.3125 C1.130625 2.879375 0.57375 2.44625 0 2 C0 1.34 0 0.68 0 0 Z " fill="#DC2422" transform="translate(832,416)"/>
<path d="M0 0 C0 3 0 3 -2 6 C-2.66 6 -3.32 6 -4 6 C-4.33 7.32 -4.66 8.64 -5 10 C-5.99 10 -6.98 10 -8 10 C-8.226875 10.5775 -8.45375 11.155 -8.6875 11.75 C-10.33038023 14.5663661 -12.39533227 16.08077114 -15 18 C-15.66 17.67 -16.32 17.34 -17 17 C-11.39 11.39 -5.78 5.78 0 0 Z " fill="#1526C6" transform="translate(1006,703)"/>
<path d="M0 0 C-1.28062485 1.7074998 -2.61767557 3.37373596 -4 5 C-4.66 5 -5.32 5 -6 5 C-6 4.34 -6 3.68 -6 3 C-6.66 3.165 -7.32 3.33 -8 3.5 C-11.73099794 4.12183299 -15.21873378 4.06408926 -19 4 C-19 3.67 -19 3.34 -19 3 C-16.77228658 2.49356447 -14.54275924 1.9951038 -12.3125 1.5 C-10.45044922 1.08234375 -10.45044922 1.08234375 -8.55078125 0.65625 C-5.57601782 0.10645874 -3.00631398 -0.13795705 0 0 Z " fill="#DA2524" transform="translate(935,614)"/>
<path d="M0 0 C0.33 0.66 0.66 1.32 1 2 C-0.65 2.33 -2.3 2.66 -4 3 C-4 3.66 -4 4.32 -4 5 C-8.29 6.65 -12.58 8.3 -17 10 C-17.33 9.34 -17.66 8.68 -18 8 C-12.06 5.36 -6.12 2.72 0 0 Z " fill="#1B2DDD" transform="translate(631,326)"/>
<path d="M0 0 C1.53266582 3.06533164 1.10276471 6.26754272 1.0625 9.625 C1.05798828 10.33140625 1.05347656 11.0378125 1.04882812 11.765625 C1.03703875 13.51045275 1.01910324 15.255237 1 17 C-1.30301423 13.54547866 -2.14891585 11.07448608 -2.1875 7 C-2.20167969 6.319375 -2.21585938 5.63875 -2.23046875 4.9375 C-2 3 -2 3 0 0 Z " fill="#1325D6" transform="translate(1070,515)"/>
<path d="M0 0 C4.01930438 1.33976813 7.02069758 3.33931015 10.3515625 5.87890625 C12.12060315 7.19132292 12.12060315 7.19132292 15 8 C16.1875 10.5625 16.1875 10.5625 17 13 C4.98723879 5.58286808 4.98723879 5.58286808 0 1 C0 0.67 0 0.34 0 0 Z " fill="#1E2FDB" transform="translate(743,819)"/>
<path d="M0 0 C0 3 0 3 -2.1875 5.48046875 C-3.115625 6.37378906 -4.04375 7.26710938 -5 8.1875 C-5.928125 9.08855469 -6.85625 9.98960937 -7.8125 10.91796875 C-8.534375 11.60503906 -9.25625 12.29210937 -10 13 C-10.66 12.67 -11.32 12.34 -12 12 C-10.56665422 10.37133456 -9.12817021 8.74719006 -7.6875 7.125 C-6.88699219 6.22007812 -6.08648438 5.31515625 -5.26171875 4.3828125 C-3 2 -3 2 0 0 Z " fill="#FED5D5" transform="translate(748,547)"/>
<path d="M0 0 C0.33 0.66 0.66 1.32 1 2 C4.04581269 2.46954261 4.04581269 2.46954261 7.5625 2.625 C8.76003906 2.69976562 9.95757813 2.77453125 11.19140625 2.8515625 C12.11824219 2.90054687 13.04507813 2.94953125 14 3 C14 3.33 14 3.66 14 4 C3.11 4.495 3.11 4.495 -8 5 C-5.21040099 2.90780074 -3.06775511 1.42431487 0 0 Z " fill="#1B2BC7" transform="translate(611,335)"/>
<path d="M0 0 C-0.33 0.99 -0.66 1.98 -1 3 C-2.76586914 3.70776367 -2.76586914 3.70776367 -5.03515625 4.16796875 C-5.84404297 4.33876953 -6.65292969 4.50957031 -7.48632812 4.68554688 C-8.7615332 4.93401367 -8.7615332 4.93401367 -10.0625 5.1875 C-11.34350586 5.45336914 -11.34350586 5.45336914 -12.65039062 5.72460938 C-14.76450895 6.1616059 -16.88197834 6.58233206 -19 7 C-19.33 6.34 -19.66 5.68 -20 5 C-17.04283593 4.16247839 -14.084087 3.33069969 -11.125 2.5 C-10.28324219 2.26152344 -9.44148437 2.02304687 -8.57421875 1.77734375 C-7.76855469 1.55175781 -6.96289062 1.32617188 -6.1328125 1.09375 C-5.01737061 0.77954102 -5.01737061 0.77954102 -3.87939453 0.45898438 C-2 0 -2 0 0 0 Z " fill="#1E2FDA" transform="translate(707,300)"/>
<path d="M0 0 C0.66 0.33 1.32 0.66 2 1 C1.01 6.61 0.02 12.22 -1 18 C-1.33 18 -1.66 18 -2 18 C-2.20852314 11.59370576 -2.1583195 6.07027358 0 0 Z " fill="#1426DD" transform="translate(1105,498)"/>
<path d="M0 0 C1.13508688 3.3515741 0.87309359 5.35675676 -0.25 8.6875 C-0.50265625 9.47511719 -0.7553125 10.26273437 -1.015625 11.07421875 C-2 13 -2 13 -5 14 C-3.45730076 9.27934033 -1.92205381 4.58335908 0 0 Z " fill="#E12422" transform="translate(727,501)"/>
<path d="M0 0 C4.04420651 1.77945087 7.46078487 4.39529673 11 7 C10.34 7.66 9.68 8.32 9 9 C9 8.34 9 7.68 9 7 C7.35 6.67 5.7 6.34 4 6 C4 5.34 4 4.68 4 4 C3.01 4 2.02 4 1 4 C0.67 2.68 0.34 1.36 0 0 Z " fill="#2B3ACC" transform="translate(680,731)"/>
<path d="M0 0 C0 4.0234866 -1.76191846 5.70870362 -4 9 C-4.71573527 10.64619113 -5.4025696 12.30728055 -6 14 C-6.66 13.67 -7.32 13.34 -8 13 C-6.40956621 7.91061189 -3.2553049 4.12543357 0 0 Z " fill="#1E2FD9" transform="translate(583,547)"/>
<path d="M0 0 C0.33 0.66 0.66 1.32 1 2 C-0.82153171 7.35814198 -3.82141635 11.28570342 -8 15 C-6.62712658 11.30123909 -4.93644547 8.0485524 -2.875 4.6875 C-2.33617187 3.80449219 -1.79734375 2.92148437 -1.2421875 2.01171875 C-0.83226562 1.34785156 -0.42234375 0.68398438 0 0 Z " fill="#1D2ED8" transform="translate(1095,478)"/>
<path d="M0 0 C3.94139078 1.66751148 6.7892812 4.22710649 10 7 C9.34 7.66 8.68 8.32 8 9 C7.67 8.34 7.34 7.68 7 7 C4.97536745 6.34786708 4.97536745 6.34786708 3 6 C3 5.34 3 4.68 3 4 C2.34 4 1.68 4 1 4 C0.67 2.68 0.34 1.36 0 0 Z " fill="#2A3AD1" transform="translate(670,723)"/>
<path d="M0 0 C3.3 0 6.6 0 10 0 C10 0.66 10 1.32 10 2 C10.66 2.66 11.32 3.32 12 4 C4.5 3.375 4.5 3.375 0 0 Z " fill="#0F21D1" transform="translate(928,322)"/>
<path d="M0 0 C2.46324069 3.69486103 2.38991688 5.63293092 2 10 C1.01 10.99 0.02 11.98 -1 13 C-0.67 8.71 -0.34 4.42 0 0 Z " fill="#D7DDFE" transform="translate(1111,464)"/>
<path d="M0 0 C0.99 0.33 1.98 0.66 3 1 C1.79618552 3.49361571 0.54571278 5.68143083 -1 8 C-1.66 8 -2.32 8 -3 8 C-1.125 2.25 -1.125 2.25 0 0 Z " fill="#0F21D8" transform="translate(1043,649)"/>
<path d="M0 0 C1.46726798 3.81489674 0.43336419 6.29011622 -1 10 C-1.66 10 -2.32 10 -3 10 C-2.39009109 6.44219804 -1.4216319 3.3171411 0 0 Z " fill="#1325C9" transform="translate(1051,631)"/>
<path d="M0 0 C0.66 0.33 1.32 0.66 2 1 C0.02 2.98 -1.96 4.96 -4 7 C-4.99 6.67 -5.98 6.34 -7 6 C-4.69 4.02 -2.38 2.04 0 0 Z " fill="#FFDCDC" transform="translate(756,540)"/>
<path d="M0 0 C0.99 0 1.98 0 3 0 C3.99 1.98 4.98 3.96 6 6 C5.34 6.66 4.68 7.32 4 8 C2.68 5.36 1.36 2.72 0 0 Z " fill="#1729E1" transform="translate(622,693)"/>
</svg>
