<svg version="1.1" id="Layer_1" xmlns="http://www.w3.org/2000/svg" xmlns:xlink="http://www.w3.org/1999/xlink" x="0px" y="0px"
	 width="100%" viewBox="0 0 1096 233" enable-background="new 0 0 1096 233" xml:space="preserve">
<path fill="#FEFEFE" opacity="1.000000" stroke="none" 
	d="
M737.000000,234.000000 
	C491.333374,234.000000 246.166748,234.000000 1.000099,234.000000 
	C1.000066,156.333389 1.000066,78.666779 1.000033,1.000130 
	C366.333221,1.000087 731.666443,1.000087 1096.999756,1.000043 
	C1096.999756,78.666527 1096.999756,156.333054 1096.999878,233.999786 
	C977.166687,234.000000 857.333313,234.000000 737.000000,234.000000 
M195.759384,134.812210 
	C199.747253,133.723938 203.804901,132.828949 207.680496,131.429703 
	C208.843719,131.009735 210.353745,129.098694 210.245422,128.016861 
	C209.659515,122.165031 208.615448,116.359062 207.608582,109.744247 
	C206.299377,110.973282 205.889572,111.255798 205.610565,111.634644 
	C194.982117,126.066711 184.596375,129.494141 167.084976,124.505447 
	C165.871796,124.159828 164.371750,124.821251 162.733322,125.505005 
	C162.425079,125.713593 162.116821,125.922180 161.205902,125.853088 
	C157.560303,122.023262 153.914719,118.193436 150.299072,114.395073 
	C141.218552,122.675308 140.447021,134.120270 147.347687,145.764160 
	C149.318848,149.090195 151.768097,150.698135 155.631409,151.086182 
	C172.234756,152.753922 186.746796,147.364990 200.244553,138.332748 
	C200.510483,138.154800 200.502090,137.566833 200.665726,137.024124 
	C198.630463,137.024124 196.814453,137.024124 194.985611,136.362152 
	C194.987823,135.920853 194.990021,135.479568 195.759384,134.812210 
M127.878380,115.827072 
	C122.658775,122.207596 119.967133,129.654160 119.020546,137.723190 
	C118.846443,139.207230 119.516930,141.789612 120.528511,142.246460 
	C125.894196,144.669525 131.493118,146.576157 138.065277,149.060074 
	C137.152634,146.689774 136.836121,145.757370 136.441513,144.859314 
	C130.007599,130.216705 133.199203,116.461571 145.420944,106.348076 
	C146.827789,105.183914 148.353363,104.163383 149.784790,103.027016 
	C149.797714,103.016762 149.273148,102.329468 149.013931,101.318069 
	C149.009720,100.891235 149.005524,100.464394 149.695999,99.718277 
	C153.817154,98.600502 157.938309,97.482719 162.036804,96.371086 
	C159.488235,83.639305 143.634521,74.639259 132.202866,79.258011 
	C131.166565,79.676720 130.122711,80.422607 129.429428,81.292992 
	C117.680000,96.044075 115.293945,113.069855 116.816933,130.562912 
	C120.113258,125.127945 123.509216,119.528709 127.432037,114.230003 
	C127.666473,114.556450 127.900909,114.882889 127.878380,115.827072 
M110.614662,30.874079 
	C118.829613,33.997528 127.009155,37.220398 135.286789,40.167797 
	C137.134018,40.825542 139.492081,41.094959 141.334518,40.566139 
	C182.264679,28.818401 222.654877,53.536716 230.600967,95.335655 
	C231.083740,97.875191 231.360046,100.453979 231.789337,103.405884 
	C232.896912,102.720085 233.493576,102.435631 233.991501,102.029984 
	C250.655228,88.454811 259.918579,70.279793 265.852661,50.149448 
	C266.273987,48.720226 264.917572,45.894421 263.543549,44.961857 
	C258.049377,41.232864 252.336655,37.780865 246.482254,34.641323 
	C241.463760,31.950056 236.141891,29.824518 230.438751,27.212746 
	C232.316162,34.859459 233.940689,41.476162 235.381271,47.343609 
	C225.579102,39.870872 215.743759,32.372829 205.867737,24.190939 
	C204.409546,19.715822 201.382629,16.756575 196.836075,15.751982 
	C186.006760,13.359170 175.225037,10.013330 164.256638,9.128615 
	C133.846375,6.675711 105.304131,14.424848 78.003448,27.371973 
	C77.377289,27.668922 76.894455,28.268084 76.747009,28.390989 
	C87.728325,29.111523 98.797859,29.837845 110.614662,30.874079 
M254.087372,99.377373 
	C247.092834,105.474258 240.037811,111.504242 233.155823,117.725639 
	C231.811707,118.940758 230.623413,120.783249 230.232147,122.530907 
	C220.331421,166.754700 173.297775,190.062134 132.104462,171.083786 
	C130.991409,170.570999 129.810623,170.205276 128.463074,169.696014 
	C130.324524,189.200211 143.741699,215.310364 157.946304,226.978897 
	C159.041916,227.878922 161.610779,228.264999 162.770065,227.609009 
	C173.709732,221.418900 184.491837,214.950378 195.319382,208.562149 
	C195.097412,208.132660 194.875458,207.703186 194.653488,207.273697 
	C188.168152,205.363617 181.682816,203.453537 175.197479,201.543442 
	C175.272507,201.114838 175.347534,200.686218 175.422546,200.257614 
	C188.055420,198.298645 199.786423,193.879166 211.647919,187.874603 
	C214.991150,186.722672 219.094452,186.423355 221.529449,184.252640 
	C227.837234,178.629440 233.985901,172.631149 239.173508,165.983109 
	C258.489441,141.229279 267.254059,112.336052 271.031219,81.637001 
	C271.431061,78.387131 271.633759,75.112999 271.968872,71.396072 
	C265.886902,81.076180 260.247528,90.051804 254.087372,99.377373 
M120.431381,190.276764 
	C118.895454,181.969025 117.538467,173.622055 115.729668,165.374161 
	C115.067596,162.355194 114.032906,158.892517 111.983917,156.782043 
	C82.051926,125.952072 85.649666,77.377892 119.976959,51.405594 
	C121.341583,50.373119 122.659966,49.279507 124.410942,47.887623 
	C122.380730,47.061401 121.039726,46.464691 119.663933,45.963493 
	C102.268761,39.626503 84.535561,39.394405 66.542503,42.849064 
	C56.042007,44.865154 55.627174,44.723217 55.473545,55.286259 
	C55.323616,65.594910 56.080853,75.916756 56.439835,86.232811 
	C60.467628,83.542686 62.941067,80.649612 65.701591,78.062912 
	C68.465431,75.473122 71.516060,73.189384 73.722702,71.365265 
	C71.810425,83.697388 69.887520,96.098000 67.322083,108.872849 
	C63.177517,112.863602 62.291862,117.558197 63.913738,123.017532 
	C65.330986,127.788071 66.112297,132.756516 67.663757,137.476761 
	C77.687248,167.972702 97.606750,191.193390 122.137398,210.947357 
	C126.447411,214.418091 130.994308,217.594696 135.875992,221.238724 
	C130.542496,210.730911 125.561539,200.917664 120.431381,190.276764 
M735.500122,110.720985 
	C721.394592,110.720985 707.289124,110.720985 693.139221,110.720985 
	C693.139221,118.438080 693.139221,125.651985 693.139221,133.173187 
	C710.606079,133.173187 727.722534,133.173187 744.991089,133.173187 
	C744.991089,134.136261 745.098511,134.803268 744.975403,135.424591 
	C741.275757,154.096786 726.344543,167.945892 707.305298,170.392288 
	C685.643250,173.175690 666.206909,163.680115 657.679626,146.269165 
	C652.300049,135.285080 651.222961,123.549248 652.256104,111.700447 
	C653.366028,98.969826 657.860474,87.525887 667.578308,78.533760 
	C684.602600,62.780827 722.663330,62.069618 736.379761,90.677505 
	C747.166138,90.677505 757.887878,90.677505 768.658142,90.677505 
	C765.598267,74.087639 755.726135,58.612976 740.611084,50.253696 
	C711.107971,33.937199 681.102600,33.892036 652.566528,52.239315 
	C631.499451,65.784416 622.306519,86.908989 620.685608,111.464287 
	C619.322021,132.121521 622.800049,151.739929 635.457947,168.659805 
	C653.487671,192.760437 678.687256,200.711044 707.446594,197.612732 
	C750.839294,192.937958 778.805969,158.033447 770.876648,110.720978 
	C759.457886,110.720978 747.979065,110.720978 735.500122,110.720985 
M893.024048,100.257645 
	C893.666077,103.798180 891.505859,103.820007 888.896362,103.811150 
	C869.236816,103.744385 849.576904,103.778908 829.917114,103.764542 
	C828.796448,103.763718 827.675903,103.611458 826.181396,103.502396 
	C826.181396,82.460541 826.181396,61.699013 826.181396,40.678318 
	C815.701904,40.678318 805.621033,40.678318 795.404968,40.678318 
	C795.404968,92.790436 795.404968,144.647980 795.404968,196.505157 
	C805.803955,196.505157 815.865295,196.505157 826.246826,196.505157 
	C826.246826,173.892197 826.246826,151.617569 826.246826,129.160477 
	C848.620850,129.160477 870.666443,129.160477 893.200439,129.160477 
	C893.200439,151.807510 893.200439,174.193924 893.200439,196.483734 
	C903.916077,196.483734 914.138977,196.483734 924.402710,196.483734 
	C924.402710,144.389740 924.402710,92.657883 924.402710,40.670742 
	C913.878479,40.670742 903.634583,40.670742 893.024292,40.670742 
	C893.024292,60.383953 893.024292,79.843864 893.024048,100.257645 
M313.877411,146.582169 
	C325.473694,183.314941 358.217834,203.056061 398.249359,197.449173 
	C429.600494,193.058075 457.543854,167.479095 458.430756,142.120178 
	C449.601990,142.120178 440.770691,142.359253 431.962280,142.013840 
	C427.890686,141.854187 425.915863,143.281311 424.027313,146.819290 
	C415.562592,162.677139 401.702850,169.653748 384.140656,169.317200 
	C366.425537,168.977707 353.812012,160.313019 346.543396,144.228088 
	C340.800873,131.520233 340.436066,118.143166 342.841614,104.625717 
	C346.368713,84.806305 359.795563,71.070137 378.295898,68.147308 
	C398.076111,65.022278 415.552643,74.006287 425.165558,92.128265 
	C425.766541,93.261192 427.086365,94.788628 428.097473,94.808273 
	C438.323090,95.006927 448.554047,94.929420 458.914917,94.929420 
	C456.327545,83.166367 451.645416,73.061462 444.791809,64.860214 
	C426.202637,42.615845 401.593353,36.490940 374.140839,39.726456 
	C345.861145,43.059464 326.232361,58.510639 315.866364,85.067932 
	C308.103485,104.956139 308.066040,125.334763 313.877411,146.582169 
M555.632080,157.502792 
	C555.848206,149.624985 555.273682,142.029419 559.429871,134.341644 
	C575.563232,104.499680 590.909180,74.231934 606.529480,44.112953 
	C607.086731,43.038551 607.447083,41.862022 608.027466,40.412613 
	C597.110657,40.412613 586.783875,40.560791 576.466064,40.321327 
	C573.414001,40.250496 572.505005,41.882545 571.459290,44.054562 
	C563.309326,60.982388 555.122437,77.892471 546.926208,94.797951 
	C544.803223,99.176773 542.606628,103.519920 540.089905,108.592995 
	C538.841064,106.162827 537.993896,104.594406 537.217651,102.991631 
	C527.723328,83.386925 518.185364,63.802898 508.813843,44.139599 
	C507.485382,41.352184 505.944366,40.254585 502.790039,40.332287 
	C493.631561,40.557896 484.463867,40.397705 475.299927,40.429493 
	C474.082031,40.433716 472.864960,40.673103 471.299866,40.840847 
	C472.334564,42.827721 473.100159,44.298801 473.866638,45.769417 
	C490.008789,76.739990 506.184235,107.693359 522.224060,138.716827 
	C523.384399,140.961151 524.076355,143.709961 524.104919,146.234161 
	C524.276123,161.394562 524.182922,176.557877 524.198792,191.720200 
	C524.200439,193.324020 524.335083,194.927704 524.411255,196.602859 
	C534.944885,196.602859 545.031433,196.602859 555.632080,196.602859 
	C555.632080,183.744247 555.632080,171.123062 555.632080,157.502792 
M978.449463,65.329597 
	C980.394104,65.329597 982.338745,65.329597 984.829468,65.329597 
	C984.829468,109.459900 984.829468,152.987366 984.829468,196.493256 
	C995.438965,196.493256 1005.493164,196.493256 1016.050293,196.493256 
	C1016.050293,152.613525 1016.050293,109.084755 1016.050293,65.050194 
	C1030.614502,65.050194 1044.671265,65.050194 1058.632324,65.050194 
	C1058.632324,56.628902 1058.632324,48.723125 1058.632324,40.684731 
	C1019.573608,40.684731 980.837585,40.684731 942.129089,40.684731 
	C942.129089,49.001343 942.129089,57.039902 942.129089,65.329536 
	C954.166687,65.329536 965.811829,65.329536 978.449463,65.329597 
M168.318710,65.191010 
	C180.797226,81.406326 177.700287,98.827728 171.866623,116.322182 
	C184.368866,119.490990 194.130753,114.791519 200.200928,102.414528 
	C201.343826,100.084175 201.648285,96.503151 200.720520,94.133011 
	C194.705841,78.767273 182.788345,68.943542 168.649323,61.432533 
	C167.720123,60.938919 166.481064,61.028656 164.655243,60.725826 
	C166.059448,62.409031 166.974136,63.505459 168.318710,65.191010 
M163.373810,63.135059 
	C160.562836,60.629150 157.751862,58.123238 154.383987,55.120857 
	C150.276428,59.963867 146.606720,64.290649 142.528244,69.099365 
	C159.086014,69.933876 169.428604,82.243843 172.487427,99.678543 
	C176.894363,93.995499 174.653458,74.326599 163.373810,63.135059 
z"/>
<path fill="#030303" opacity="1.000000" stroke="none" 
	d="
M736.000183,110.720978 
	C747.979065,110.720978 759.457886,110.720978 770.876648,110.720978 
	C778.805969,158.033447 750.839294,192.937958 707.446594,197.612732 
	C678.687256,200.711044 653.487671,192.760437 635.457947,168.659805 
	C622.800049,151.739929 619.322021,132.121521 620.685608,111.464287 
	C622.306519,86.908989 631.499451,65.784416 652.566528,52.239315 
	C681.102600,33.892036 711.107971,33.937199 740.611084,50.253696 
	C755.726135,58.612976 765.598267,74.087639 768.658142,90.677505 
	C757.887878,90.677505 747.166138,90.677505 736.379761,90.677505 
	C722.663330,62.069618 684.602600,62.780827 667.578308,78.533760 
	C657.860474,87.525887 653.366028,98.969826 652.256104,111.700447 
	C651.222961,123.549248 652.300049,135.285080 657.679626,146.269165 
	C666.206909,163.680115 685.643250,173.175690 707.305298,170.392288 
	C726.344543,167.945892 741.275757,154.096786 744.975403,135.424591 
	C745.098511,134.803268 744.991089,134.136261 744.991089,133.173187 
	C727.722534,133.173187 710.606079,133.173187 693.139221,133.173187 
	C693.139221,125.651985 693.139221,118.438080 693.139221,110.720985 
	C707.289124,110.720985 721.394592,110.720985 736.000183,110.720978 
z"/>
<path fill="#040404" opacity="1.000000" stroke="none" 
	d="
M893.024170,99.780708 
	C893.024292,79.843864 893.024292,60.383953 893.024292,40.670742 
	C903.634583,40.670742 913.878479,40.670742 924.402710,40.670742 
	C924.402710,92.657883 924.402710,144.389740 924.402710,196.483734 
	C914.138977,196.483734 903.916077,196.483734 893.200439,196.483734 
	C893.200439,174.193924 893.200439,151.807510 893.200439,129.160477 
	C870.666443,129.160477 848.620850,129.160477 826.246826,129.160477 
	C826.246826,151.617569 826.246826,173.892197 826.246826,196.505157 
	C815.865295,196.505157 805.803955,196.505157 795.404968,196.505157 
	C795.404968,144.647980 795.404968,92.790436 795.404968,40.678318 
	C805.621033,40.678318 815.701904,40.678318 826.181396,40.678318 
	C826.181396,61.699013 826.181396,82.460541 826.181396,103.502396 
	C827.675903,103.611458 828.796448,103.763718 829.917114,103.764542 
	C849.576904,103.778908 869.236816,103.744385 888.896362,103.811150 
	C891.505859,103.820007 893.666077,103.798180 893.024170,99.780708 
z"/>
<path fill="#030303" opacity="1.000000" stroke="none" 
	d="
M313.752747,146.200134 
	C308.066040,125.334763 308.103485,104.956139 315.866364,85.067932 
	C326.232361,58.510639 345.861145,43.059464 374.140839,39.726456 
	C401.593353,36.490940 426.202637,42.615845 444.791809,64.860214 
	C451.645416,73.061462 456.327545,83.166367 458.914917,94.929420 
	C448.554047,94.929420 438.323090,95.006927 428.097473,94.808273 
	C427.086365,94.788628 425.766541,93.261192 425.165558,92.128265 
	C415.552643,74.006287 398.076111,65.022278 378.295898,68.147308 
	C359.795563,71.070137 346.368713,84.806305 342.841614,104.625717 
	C340.436066,118.143166 340.800873,131.520233 346.543396,144.228088 
	C353.812012,160.313019 366.425537,168.977707 384.140656,169.317200 
	C401.702850,169.653748 415.562592,162.677139 424.027313,146.819290 
	C425.915863,143.281311 427.890686,141.854187 431.962280,142.013840 
	C440.770691,142.359253 449.601990,142.120178 458.430756,142.120178 
	C457.543854,167.479095 429.600494,193.058075 398.249359,197.449173 
	C358.217834,203.056061 325.473694,183.314941 313.752747,146.200134 
z"/>
<path fill="#040404" opacity="1.000000" stroke="none" 
	d="
M555.632080,158.002319 
	C555.632080,171.123062 555.632080,183.744247 555.632080,196.602859 
	C545.031433,196.602859 534.944885,196.602859 524.411255,196.602859 
	C524.335083,194.927704 524.200439,193.324020 524.198792,191.720200 
	C524.182922,176.557877 524.276123,161.394562 524.104919,146.234161 
	C524.076355,143.709961 523.384399,140.961151 522.224060,138.716827 
	C506.184235,107.693359 490.008789,76.739990 473.866638,45.769417 
	C473.100159,44.298801 472.334564,42.827721 471.299866,40.840847 
	C472.864960,40.673103 474.082031,40.433716 475.299927,40.429493 
	C484.463867,40.397705 493.631561,40.557896 502.790039,40.332287 
	C505.944366,40.254585 507.485382,41.352184 508.813843,44.139599 
	C518.185364,63.802898 527.723328,83.386925 537.217651,102.991631 
	C537.993896,104.594406 538.841064,106.162827 540.089905,108.592995 
	C542.606628,103.519920 544.803223,99.176773 546.926208,94.797951 
	C555.122437,77.892471 563.309326,60.982388 571.459290,44.054562 
	C572.505005,41.882545 573.414001,40.250496 576.466064,40.321327 
	C586.783875,40.560791 597.110657,40.412613 608.027466,40.412613 
	C607.447083,41.862022 607.086731,43.038551 606.529480,44.112953 
	C590.909180,74.231934 575.563232,104.499680 559.429871,134.341644 
	C555.273682,142.029419 555.848206,149.624985 555.632080,158.002319 
z"/>
<path fill="#040404" opacity="1.000000" stroke="none" 
	d="
M977.953247,65.329567 
	C965.811829,65.329536 954.166687,65.329536 942.129089,65.329536 
	C942.129089,57.039902 942.129089,49.001343 942.129089,40.684731 
	C980.837585,40.684731 1019.573608,40.684731 1058.632324,40.684731 
	C1058.632324,48.723125 1058.632324,56.628902 1058.632324,65.050194 
	C1044.671265,65.050194 1030.614502,65.050194 1016.050293,65.050194 
	C1016.050293,109.084755 1016.050293,152.613525 1016.050293,196.493256 
	C1005.493164,196.493256 995.438965,196.493256 984.829468,196.493256 
	C984.829468,152.987366 984.829468,109.459900 984.829468,65.329597 
	C982.338745,65.329597 980.394104,65.329597 977.953247,65.329567 
z"/>
<path fill="#262627" opacity="1.000000" stroke="none" 
	d="
M67.964622,108.498619 
	C69.887520,96.098000 71.810425,83.697388 73.722702,71.365265 
	C71.516060,73.189384 68.465431,75.473122 65.701591,78.062912 
	C62.941067,80.649612 60.467628,83.542686 56.439835,86.232811 
	C56.080853,75.916756 55.323616,65.594910 55.473545,55.286259 
	C55.627174,44.723217 56.042007,44.865154 66.542503,42.849064 
	C84.535561,39.394405 102.268761,39.626503 119.663933,45.963493 
	C121.039726,46.464691 122.380730,47.061401 124.410942,47.887623 
	C122.659966,49.279507 121.341583,50.373119 119.976959,51.405594 
	C85.649666,77.377892 82.051926,125.952072 111.983917,156.782043 
	C114.032906,158.892517 115.067596,162.355194 115.729668,165.374161 
	C117.538467,173.622055 118.895454,181.969025 120.119125,190.621216 
	C101.926079,182.100693 88.509644,168.697510 79.109337,151.142105 
	C71.968147,137.805725 69.138725,123.376801 67.964622,108.498619 
z"/>
<path fill="#262627" opacity="1.000000" stroke="none" 
	d="
M210.831238,187.587585 
	C199.786423,193.879166 188.055420,198.298645 175.422546,200.257614 
	C175.347534,200.686218 175.272507,201.114838 175.197479,201.543442 
	C181.682816,203.453537 188.168152,205.363617 194.653488,207.273697 
	C194.875458,207.703186 195.097412,208.132660 195.319382,208.562149 
	C184.491837,214.950378 173.709732,221.418900 162.770065,227.609009 
	C161.610779,228.264999 159.041916,227.878922 157.946304,226.978897 
	C143.741699,215.310364 130.324524,189.200211 128.463074,169.696014 
	C129.810623,170.205276 130.991409,170.570999 132.104462,171.083786 
	C173.297775,190.062134 220.331421,166.754700 230.232147,122.530907 
	C230.623413,120.783249 231.811707,118.940758 233.155823,117.725639 
	C240.037811,111.504242 247.092834,105.474258 254.438538,99.656891 
	C256.274841,123.691216 250.565857,145.574127 235.596039,164.116318 
	C228.514679,172.887527 219.157364,179.821304 210.831238,187.587585 
z"/>
<path fill="#262727" opacity="1.000000" stroke="none" 
	d="
M205.908401,24.874792 
	C215.743759,32.372829 225.579102,39.870872 235.381271,47.343609 
	C233.940689,41.476162 232.316162,34.859459 230.438751,27.212746 
	C236.141891,29.824518 241.463760,31.950056 246.482254,34.641323 
	C252.336655,37.780865 258.049377,41.232864 263.543549,44.961857 
	C264.917572,45.894421 266.273987,48.720226 265.852661,50.149448 
	C259.918579,70.279793 250.655228,88.454811 233.991501,102.029984 
	C233.493576,102.435631 232.896912,102.720085 231.789337,103.405884 
	C231.360046,100.453979 231.083740,97.875191 230.600967,95.335655 
	C222.654877,53.536716 182.264679,28.818401 141.334518,40.566139 
	C139.492081,41.094959 137.134018,40.825542 135.286789,40.167797 
	C127.009155,37.220398 118.829613,33.997528 110.475922,30.488247 
	C130.759155,15.933860 153.442902,11.309428 177.622665,15.682961 
	C187.289185,17.431402 196.493622,21.734549 205.908401,24.874792 
z"/>
<path fill="#1831CA" opacity="1.000000" stroke="none" 
	d="
M126.905167,113.929482 
	C123.509216,119.528709 120.113258,125.127945 116.816933,130.562912 
	C115.293945,113.069855 117.680000,96.044075 129.429428,81.292992 
	C130.122711,80.422607 131.166565,79.676720 132.202866,79.258011 
	C143.634521,74.639259 159.488235,83.639305 162.036804,96.371086 
	C157.938309,97.482719 153.817154,98.600502 148.975403,99.861603 
	C140.023911,102.937874 132.302551,106.652061 126.905167,113.929482 
z"/>
<path fill="#1831CA" opacity="1.000000" stroke="none" 
	d="
M168.103760,64.896446 
	C166.974136,63.505459 166.059448,62.409031 164.655243,60.725826 
	C166.481064,61.028656 167.720123,60.938919 168.649323,61.432533 
	C182.788345,68.943542 194.705841,78.767273 200.720520,94.133011 
	C201.648285,96.503151 201.343826,100.084175 200.200928,102.414528 
	C194.130753,114.791519 184.368866,119.490990 171.866623,116.322182 
	C177.700287,98.827728 180.797226,81.406326 168.103760,64.896446 
z"/>
<path fill="#1831CA" opacity="1.000000" stroke="none" 
	d="
M194.998444,137.024124 
	C196.814453,137.024124 198.630463,137.024124 200.665726,137.024124 
	C200.502090,137.566833 200.510483,138.154800 200.244553,138.332748 
	C186.746796,147.364990 172.234756,152.753922 155.631409,151.086182 
	C151.768097,150.698135 149.318848,149.090195 147.347687,145.764160 
	C140.447021,134.120270 141.218552,122.675308 150.299072,114.395073 
	C153.914719,118.193436 157.560303,122.023262 161.658478,126.295952 
	C171.717987,134.501541 182.258392,139.279541 194.998444,137.024124 
z"/>
<path fill="#1C35C7" opacity="1.000000" stroke="none" 
	d="
M67.643356,108.685730 
	C69.138725,123.376801 71.968147,137.805725 79.109337,151.142105 
	C88.509644,168.697510 101.926079,182.100693 120.193726,191.035034 
	C125.561539,200.917664 130.542496,210.730911 135.875992,221.238724 
	C130.994308,217.594696 126.447411,214.418091 122.137398,210.947357 
	C97.606750,191.193390 77.687248,167.972702 67.663757,137.476761 
	C66.112297,132.756516 65.330986,127.788071 63.913738,123.017532 
	C62.291862,117.558197 63.177517,112.863602 67.643356,108.685730 
z"/>
<path fill="#1B34C6" opacity="1.000000" stroke="none" 
	d="
M205.888062,24.532867 
	C196.493622,21.734549 187.289185,17.431402 177.622665,15.682961 
	C153.442902,11.309428 130.759155,15.933860 110.102287,30.333290 
	C98.797859,29.837845 87.728325,29.111523 76.747009,28.390989 
	C76.894455,28.268084 77.377289,27.668922 78.003448,27.371973 
	C105.304131,14.424848 133.846375,6.675711 164.256638,9.128615 
	C175.225037,10.013330 186.006760,13.359170 196.836075,15.751982 
	C201.382629,16.756575 204.409546,19.715822 205.888062,24.532867 
z"/>
<path fill="#1D35C7" opacity="1.000000" stroke="none" 
	d="
M211.239578,187.731094 
	C219.157364,179.821304 228.514679,172.887527 235.596039,164.116318 
	C250.565857,145.574127 256.274841,123.691216 254.698929,99.481918 
	C260.247528,90.051804 265.886902,81.076180 271.968872,71.396072 
	C271.633759,75.112999 271.431061,78.387131 271.031219,81.637001 
	C267.254059,112.336052 258.489441,141.229279 239.173508,165.983109 
	C233.985901,172.631149 227.837234,178.629440 221.529449,184.252640 
	C219.094452,186.423355 214.991150,186.722672 211.239578,187.731094 
z"/>
<path fill="#2D2E37" opacity="1.000000" stroke="none" 
	d="
M148.999527,101.958282 
	C149.273148,102.329468 149.797714,103.016762 149.784790,103.027016 
	C148.353363,104.163383 146.827789,105.183914 145.420944,106.348076 
	C133.199203,116.461571 130.007599,130.216705 136.441513,144.859314 
	C136.836121,145.757370 137.152634,146.689774 138.065277,149.060074 
	C131.493118,146.576157 125.894196,144.669525 120.528511,142.246460 
	C119.516930,141.789612 118.846443,139.207230 119.020546,137.723190 
	C119.967133,129.654160 122.658775,122.207596 128.312210,115.373718 
	C135.497208,110.599663 142.248367,106.278976 148.999527,101.958282 
z"/>
<path fill="#2D2E37" opacity="1.000000" stroke="none" 
	d="
M163.005096,125.014366 
	C164.371750,124.821251 165.871796,124.159828 167.084976,124.505447 
	C184.596375,129.494141 194.982117,126.066711 205.610565,111.634644 
	C205.889572,111.255798 206.299377,110.973282 207.608582,109.744247 
	C208.615448,116.359062 209.659515,122.165031 210.245422,128.016861 
	C210.353745,129.098694 208.843719,131.009735 207.680496,131.429703 
	C203.804901,132.828949 199.747253,133.723938 194.922760,134.857666 
	C182.262650,136.205566 172.360428,131.469421 163.005096,125.014366 
z"/>
<path fill="#2E2F37" opacity="1.000000" stroke="none" 
	d="
M163.618561,63.390244 
	C174.653458,74.326599 176.894363,93.995499 172.487427,99.678543 
	C169.428604,82.243843 159.086014,69.933876 142.528244,69.099365 
	C146.606720,64.290649 150.276428,59.963867 154.383987,55.120857 
	C157.751862,58.123238 160.562836,60.629150 163.618561,63.390244 
z"/>
<path fill="#D7DAEC" opacity="1.000000" stroke="none" 
	d="
M162.869202,125.259689 
	C172.360428,131.469421 182.262650,136.205566 194.539169,134.970688 
	C194.990021,135.479568 194.987823,135.920853 194.992035,136.693146 
	C182.258392,139.279541 171.717987,134.501541 161.959808,126.434792 
	C162.116821,125.922180 162.425079,125.713593 162.869202,125.259689 
z"/>
<path fill="#D9DBE9" opacity="1.000000" stroke="none" 
	d="
M149.006729,101.638176 
	C142.248367,106.278976 135.497208,110.599663 128.440704,115.064842 
	C127.900909,114.882889 127.666473,114.556450 127.168602,114.079742 
	C132.302551,106.652061 140.023911,102.937874 148.628067,100.021248 
	C149.005524,100.464394 149.009720,100.891235 149.006729,101.638176 
z"/>
</svg>