<svg version="1.1" id="Layer_1" xmlns="http://www.w3.org/2000/svg" xmlns:xlink="http://www.w3.org/1999/xlink" x="0px" y="0px"
	 width="100%" viewBox="0 0 471 411" enable-background="new 0 0 471 411" xml:space="preserve">
<path fill="#FEFEFE" opacity="1.000000" stroke="none" 
	d="
M1.000000,154.000000 
	C1.000000,102.666695 1.000000,51.833389 1.000000,1.000061 
	C157.999893,1.000041 314.999786,1.000041 471.999756,1.000021 
	C471.999817,137.999817 471.999817,274.999634 471.999908,411.999573 
	C315.000275,411.999725 158.000534,411.999725 1.000404,411.999878 
	C1.000000,326.166656 1.000000,240.333328 1.000000,154.000000 
M172.995499,340.994293 
	C172.995499,340.994293 173.054001,340.978821 173.071960,340.213135 
	C167.226212,324.280792 164.257645,307.811951 164.236267,290.858612 
	C164.232101,287.561371 163.176514,285.400787 160.800735,283.175659 
	C111.367401,236.876968 108.491768,158.383224 154.632172,108.700066 
	C162.028122,100.736229 170.760452,94.013466 179.093597,86.520401 
	C139.908951,69.478569 99.612762,71.338280 58.523460,81.937447 
	C55.738144,106.355820 56.402332,131.012817 60.673904,156.551468 
	C70.385490,144.509781 80.291283,134.248932 92.808472,126.804253 
	C92.808472,126.804253 93.117157,127.109718 93.129601,127.860405 
	C84.556374,148.669067 80.410049,170.379608 79.301003,193.159790 
	C77.276558,196.010162 74.848282,198.665741 73.350761,201.770279 
	C72.067558,204.430511 70.948952,207.717728 71.302017,210.534042 
	C74.463272,235.751099 82.480415,259.448029 94.567543,281.774719 
	C119.582733,327.981384 156.295044,363.248627 198.812744,393.062958 
	C199.573776,393.596619 200.620834,393.722321 202.736176,394.454102 
	C190.065201,377.549500 180.537537,360.451538 173.644577,341.495819 
	C173.565018,341.151825 173.349411,340.964478 172.995499,340.994293 
M153.474716,56.095348 
	C169.997910,59.718407 185.657379,65.587257 200.482773,73.774948 
	C202.240631,74.745766 204.870804,74.862549 206.916077,74.459366 
	C214.900467,72.885399 222.724838,70.185516 230.764893,69.257812 
	C294.093811,61.950562 350.899902,101.463303 366.362823,163.412933 
	C368.144806,170.552200 369.088379,177.900742 370.542542,185.815536 
	C403.721741,159.884140 421.082703,124.827644 432.428131,85.633667 
	C412.449127,70.705025 390.749756,59.057129 367.775055,50.309017 
	C371.054169,63.270279 374.230438,75.825104 377.406738,88.379929 
	C376.836609,88.582985 376.266479,88.786049 375.696350,88.989105 
	C374.639404,87.804512 373.550873,86.646477 372.530426,85.431259 
	C361.295013,72.051270 348.116302,60.923290 333.380463,51.594006 
	C330.442444,49.733932 327.520630,47.848232 324.500153,45.189590 
	C321.901886,40.379101 321.194489,34.548801 314.888123,32.032932 
	C292.397980,23.060736 269.108459,18.084551 244.960403,17.054628 
	C205.836914,15.386003 168.117050,22.447954 131.419266,35.617062 
	C124.220970,38.200191 117.085556,40.984028 110.035233,43.946793 
	C103.033005,46.889339 96.174629,50.174194 89.253166,53.308937 
	C110.670326,51.802864 131.746750,52.148396 153.474716,56.095348 
M332.973206,334.950714 
	C340.593048,336.665405 346.428650,333.923462 352.249420,328.850464 
	C366.003662,316.863098 378.432861,303.771973 388.939178,288.867950 
	C410.932037,257.669312 424.574768,222.884827 432.964630,185.874588 
	C437.423065,166.207016 440.252045,146.307907 440.978912,126.033699 
	C432.959106,144.266449 422.878265,161.177551 410.154144,177.170380 
	C398.859009,190.680573 386.233002,202.631149 370.824280,211.464798 
	C369.318817,212.327866 368.236603,214.730972 367.837402,216.606445 
	C351.768219,292.099426 276.379639,335.111725 204.181931,309.813721 
	C198.202866,307.718658 192.461548,304.945160 186.174927,302.304230 
	C191.237427,345.086731 213.355988,378.210754 242.152649,408.122406 
	C264.879730,398.235291 285.837097,385.315674 305.699677,369.057709 
	C292.267029,366.575317 279.726715,363.956970 267.295380,357.901428 
	C303.474152,349.585327 310.213928,347.165833 332.973206,334.950714 
M182.077484,154.589890 
	C167.361526,179.573196 164.393799,206.714645 167.493912,235.260544 
	C177.585663,193.295319 209.146866,178.107010 247.647522,171.140564 
	C243.580627,158.791702 237.136429,149.172989 225.375488,143.945755 
	C215.312881,139.473373 204.384567,138.002304 194.167236,141.069733 
	C189.398727,142.501328 186.299301,149.492523 182.077484,154.589890 
M300.439941,143.071869 
	C288.488922,128.586411 273.700531,117.725372 257.058441,109.277382 
	C255.383545,108.427170 253.373734,108.236725 251.519363,107.740089 
	C273.510468,131.489471 277.029785,158.595139 269.274536,188.204910 
	C267.654724,194.389328 265.730042,200.493881 263.668152,207.590988 
	C270.677124,207.590988 277.258881,208.533020 283.468109,207.411835 
	C301.088135,204.230209 310.277435,191.379150 316.771484,176.088745 
	C317.373474,174.671387 316.949341,172.341370 316.163208,170.888977 
	C311.205383,161.729172 306.010620,152.697647 300.439941,143.071869 
M241.681488,267.941772 
	C270.432037,268.774963 295.069000,257.910461 317.944183,241.486603 
	C277.146820,251.965668 249.255508,231.742157 224.963058,203.092697 
	C211.481400,215.546921 208.813171,233.727966 216.654419,251.436569 
	C221.452805,262.273163 228.344925,268.789856 241.681488,267.941772 
M211.112122,194.624847 
	C215.665115,190.599731 220.218094,186.574615 224.771072,182.549500 
	C222.927490,182.181351 221.268600,182.446869 219.721451,183.016113 
	C189.858231,194.004501 173.750488,215.693893 170.313965,247.028580 
	C170.148209,248.539978 171.672333,251.229874 173.033539,251.755768 
	C182.463211,255.398941 192.053345,258.628296 201.612152,261.932129 
	C202.229492,262.145508 203.014847,261.872772 203.904327,261.814178 
	C189.020035,235.513016 195.209152,212.179413 211.112122,194.624847 
M326.494202,198.076767 
	C326.140045,197.290253 325.785889,196.503754 325.305023,195.435791 
	C304.187683,228.361237 275.904480,230.791199 243.284744,215.798676 
	C270.011414,241.126694 301.067871,246.201523 333.028778,230.008698 
	C331.009216,219.875061 328.910675,209.345032 326.494202,198.076767 
M264.941650,183.573853 
	C265.152588,183.701050 265.352631,183.863617 265.581085,183.933838 
	C265.649353,183.954849 265.878418,183.728790 265.896667,183.596954 
	C266.739502,177.508118 267.990723,171.440262 268.324188,165.322540 
	C269.877441,136.825516 256.661560,116.015121 232.943192,99.259514 
	C226.007492,107.210068 219.178711,115.038055 212.349945,122.866051 
	C227.533737,122.818344 238.152252,129.490143 247.577606,139.268936 
	C259.365814,151.499207 263.792999,166.463699 264.941650,183.573853 
z"/>
<path fill="#242425" opacity="1.000000" stroke="none" 
	d="
M79.893425,192.829636 
	C80.410049,170.379608 84.556374,148.669067 93.379745,127.376114 
	C93.614784,126.625107 93.599678,126.358398 93.584572,126.091682 
	C93.227699,126.222824 92.870819,126.353973 92.513947,126.485115 
	C80.291283,134.248932 70.385490,144.509781 60.673904,156.551468 
	C56.402332,131.012817 55.738144,106.355820 58.523460,81.937447 
	C99.612762,71.338280 139.908951,69.478569 179.093597,86.520401 
	C170.760452,94.013466 162.028122,100.736229 154.632172,108.700066 
	C108.491768,158.383224 111.367401,236.876968 160.800735,283.175659 
	C163.176514,285.400787 164.232101,287.561371 164.236267,290.858612 
	C164.257645,307.811951 167.226212,324.280792 172.689575,340.684052 
	C170.775284,340.532623 169.165405,340.053284 167.723007,339.266846 
	C137.327011,322.693512 114.025276,299.112915 98.218918,268.292908 
	C86.086319,244.636169 80.534218,219.312088 79.893425,192.829636 
z"/>
<path fill="#242425" opacity="1.000000" stroke="none" 
	d="
M332.128967,334.763245 
	C310.213928,347.165833 303.474152,349.585327 267.295380,357.901428 
	C279.726715,363.956970 292.267029,366.575317 305.699677,369.057709 
	C285.837097,385.315674 264.879730,398.235291 242.152649,408.122406 
	C213.355988,378.210754 191.237427,345.086731 186.174927,302.304230 
	C192.461548,304.945160 198.202866,307.718658 204.181931,309.813721 
	C276.379639,335.111725 351.768219,292.099426 367.837402,216.606445 
	C368.236603,214.730972 369.318817,212.327866 370.824280,211.464798 
	C386.233002,202.631149 398.859009,190.680573 410.503571,177.487610 
	C410.587067,189.772491 411.278625,201.853668 409.875824,213.686539 
	C405.648529,249.344711 391.128082,280.619385 366.040070,306.316040 
	C355.783813,316.821106 343.493744,325.340515 332.128967,334.763245 
z"/>
<path fill="#242425" opacity="1.000000" stroke="none" 
	d="
M324.591339,45.974342 
	C327.520630,47.848232 330.442444,49.733932 333.380463,51.594006 
	C348.116302,60.923290 361.295013,72.051270 372.530426,85.431259 
	C373.550873,86.646477 374.639404,87.804512 375.696350,88.989105 
	C376.266479,88.786049 376.836609,88.582985 377.406738,88.379929 
	C374.230438,75.825104 371.054169,63.270279 367.775055,50.309017 
	C390.749756,59.057129 412.449127,70.705025 432.428131,85.633667 
	C421.082703,124.827644 403.721741,159.884140 370.542542,185.815536 
	C369.088379,177.900742 368.144806,170.552200 366.362823,163.412933 
	C350.899902,101.463303 294.093811,61.950562 230.764893,69.257812 
	C222.724838,70.185516 214.900467,72.885399 206.916077,74.459366 
	C204.870804,74.862549 202.240631,74.745766 200.482773,73.774948 
	C185.657379,65.587257 169.997910,59.718407 153.323334,55.673653 
	C155.062393,53.900303 156.865891,52.402489 158.856094,51.218559 
	C198.897049,27.399115 241.631409,20.309458 286.843658,31.980328 
	C299.769073,35.316833 312.027222,41.238216 324.591339,45.974342 
z"/>
<path fill="#162FCA" opacity="1.000000" stroke="none" 
	d="
M182.260406,154.276840 
	C186.299301,149.492523 189.398727,142.501328 194.167236,141.069733 
	C204.384567,138.002304 215.312881,139.473373 225.375488,143.945755 
	C237.136429,149.172989 243.580627,158.791702 247.647522,171.140564 
	C209.146866,178.107010 177.585663,193.295319 167.493912,235.260544 
	C164.393799,206.714645 167.361526,179.573196 182.260406,154.276840 
z"/>
<path fill="#152FCA" opacity="1.000000" stroke="none" 
	d="
M300.667053,143.347809 
	C306.010620,152.697647 311.205383,161.729172 316.163208,170.888977 
	C316.949341,172.341370 317.373474,174.671387 316.771484,176.088745 
	C310.277435,191.379150 301.088135,204.230209 283.468109,207.411835 
	C277.258881,208.533020 270.677124,207.590988 263.668152,207.590988 
	C265.730042,200.493881 267.654724,194.389328 269.274536,188.204910 
	C277.029785,158.595139 273.510468,131.489471 251.519363,107.740089 
	C253.373734,108.236725 255.383545,108.427170 257.058441,109.277382 
	C273.700531,117.725372 288.488922,128.586411 300.667053,143.347809 
z"/>
<path fill="#152FCA" opacity="1.000000" stroke="none" 
	d="
M241.209198,267.932281 
	C228.344925,268.789856 221.452805,262.273163 216.654419,251.436569 
	C208.813171,233.727966 211.481400,215.546921 224.963058,203.092697 
	C249.255508,231.742157 277.146820,251.965668 317.944183,241.486603 
	C295.069000,257.910461 270.432037,268.774963 241.209198,267.932281 
z"/>
<path fill="#1630C9" opacity="1.000000" stroke="none" 
	d="
M324.545746,45.581963 
	C312.027222,41.238216 299.769073,35.316833 286.843658,31.980328 
	C241.631409,20.309458 198.897049,27.399115 158.856094,51.218559 
	C156.865891,52.402489 155.062393,53.900303 152.948273,55.512070 
	C131.746750,52.148396 110.670326,51.802864 89.253166,53.308937 
	C96.174629,50.174194 103.033005,46.889339 110.035233,43.946793 
	C117.085556,40.984028 124.220970,38.200191 131.419266,35.617062 
	C168.117050,22.447954 205.836914,15.386003 244.960403,17.054628 
	C269.108459,18.084551 292.397980,23.060736 314.888123,32.032932 
	C321.194489,34.548801 321.901886,40.379101 324.545746,45.581963 
z"/>
<path fill="#162FC9" opacity="1.000000" stroke="none" 
	d="
M79.597214,192.994720 
	C80.534218,219.312088 86.086319,244.636169 98.218918,268.292908 
	C114.025276,299.112915 137.327011,322.693512 167.723007,339.266846 
	C169.165405,340.053284 170.775284,340.532623 172.680588,341.066895 
	C173.054001,340.978821 172.995499,340.994293 173.034225,341.161072 
	C173.229355,341.546234 173.399811,341.753082 173.584320,341.948303 
	C180.537537,360.451538 190.065201,377.549500 202.736176,394.454102 
	C200.620834,393.722321 199.573776,393.596619 198.812744,393.062958 
	C156.295044,363.248627 119.582733,327.981384 94.567543,281.774719 
	C82.480415,259.448029 74.463272,235.751099 71.302017,210.534042 
	C70.948952,207.717728 72.067558,204.430511 73.350761,201.770279 
	C74.848282,198.665741 77.276558,196.010162 79.597214,192.994720 
z"/>
<path fill="#1730C8" opacity="1.000000" stroke="none" 
	d="
M332.551086,334.856995 
	C343.493744,325.340515 355.783813,316.821106 366.040070,306.316040 
	C391.128082,280.619385 405.648529,249.344711 409.875824,213.686539 
	C411.278625,201.853668 410.587067,189.772491 410.794250,177.331757 
	C422.878265,161.177551 432.959106,144.266449 440.978912,126.033699 
	C440.252045,146.307907 437.423065,166.207016 432.964630,185.874588 
	C424.574768,222.884827 410.932037,257.669312 388.939178,288.867950 
	C378.432861,303.771973 366.003662,316.863098 352.249420,328.850464 
	C346.428650,333.923462 340.593048,336.665405 332.551086,334.856995 
z"/>
<path fill="#292A33" opacity="1.000000" stroke="none" 
	d="
M210.877502,194.893494 
	C195.209152,212.179413 189.020035,235.513016 203.904327,261.814178 
	C203.014847,261.872772 202.229492,262.145508 201.612152,261.932129 
	C192.053345,258.628296 182.463211,255.398941 173.033539,251.755768 
	C171.672333,251.229874 170.148209,248.539978 170.313965,247.028580 
	C173.750488,215.693893 189.858231,194.004501 219.721451,183.016113 
	C221.268600,182.446869 222.927490,182.181351 224.771072,182.549500 
	C220.218094,186.574615 215.665115,190.599731 210.877502,194.893494 
z"/>
<path fill="#292A33" opacity="1.000000" stroke="none" 
	d="
M326.653168,198.445892 
	C328.910675,209.345032 331.009216,219.875061 333.028778,230.008698 
	C301.067871,246.201523 270.011414,241.126694 243.284744,215.798676 
	C275.904480,230.791199 304.187683,228.361237 325.305023,195.435791 
	C325.785889,196.503754 326.140045,197.290253 326.653168,198.445892 
z"/>
<path fill="#292A33" opacity="1.000000" stroke="none" 
	d="
M264.871460,183.218628 
	C263.792999,166.463699 259.365814,151.499207 247.577606,139.268936 
	C238.152252,129.490143 227.533737,122.818344 212.349945,122.866051 
	C219.178711,115.038055 226.007492,107.210068 232.943192,99.259514 
	C256.661560,116.015121 269.877441,136.825516 268.324188,165.322540 
	C267.990723,171.440262 266.739502,177.508118 265.896667,183.596954 
	C265.878418,183.728790 265.649353,183.954849 265.581085,183.933838 
	C265.352631,183.863617 265.152588,183.701050 264.871460,183.218628 
z"/>
<path fill="#242425" opacity="1.000000" stroke="none" 
	d="
M173.614441,341.722046 
	C173.399811,341.753082 173.229355,341.546234 173.035370,341.130798 
	C173.349411,340.964478 173.565018,341.151825 173.614441,341.722046 
z"/>
<path fill="#FEFEFE" opacity="1.000000" stroke="none" 
	d="
M92.661209,126.644684 
	C92.870819,126.353973 93.227699,126.222824 93.584572,126.091682 
	C93.599678,126.358398 93.614784,126.625107 93.373520,127.000771 
	C93.117157,127.109718 92.808472,126.804253 92.661209,126.644684 
z"/>
</svg>