<svg version="1.1" id="Layer_1" xmlns="http://www.w3.org/2000/svg" xmlns:xlink="http://www.w3.org/1999/xlink" x="0px" y="0px"
	 width="100%" viewBox="0 0 2635 849" enable-background="new 0 0 2635 849" xml:space="preserve">
<path fill="#FFFFFF" opacity="1.000000" stroke="none" 
	d="
M1735.000000,850.000000 
	C1156.666748,850.000000 578.833496,850.000000 1.000155,850.000000 
	C1.000103,567.000122 1.000103,284.000214 1.000052,1.000231 
	C879.333069,1.000154 1757.666138,1.000154 2635.999512,1.000077 
	C2635.999512,283.999756 2635.999512,566.999512 2635.999756,849.999634 
	C2335.833252,850.000000 2035.666626,850.000000 1735.000000,850.000000 
M302.897766,358.229523 
	C302.324158,358.224701 301.750549,358.219879 301.176941,358.215057 
	C301.522308,358.679626 301.867676,359.144196 302.606812,360.155853 
	C335.449249,393.698700 382.711761,402.232330 425.605896,382.201294 
	C427.121826,381.493378 428.890289,379.150970 428.848358,377.616577 
	C428.397156,361.109833 425.233398,345.080139 419.568573,328.990692 
	C417.419128,332.326813 415.625305,335.296509 413.653168,338.142670 
	C396.607727,362.742401 372.861786,373.253265 343.321991,371.356506 
	C328.950958,370.433807 315.954742,364.969940 302.897766,358.229523 
M417.233063,115.374184 
	C414.233093,104.314598 406.880219,97.785637 396.247803,93.933327 
	C346.888123,76.049454 296.080200,72.257027 244.338348,78.307343 
	C190.469070,84.606415 139.747238,101.501534 91.104294,125.068008 
	C89.627403,125.783524 88.192368,126.585426 85.591736,127.947166 
	C97.899025,127.435974 108.723320,126.228951 119.472473,126.708092 
	C138.038025,127.535645 156.556900,129.410385 175.832565,131.066315 
	C198.922470,136.495605 221.134476,144.264954 241.715286,156.219528 
	C245.057739,158.161026 247.996216,158.357086 251.614517,157.178345 
	C280.512054,147.764191 309.827179,145.529938 339.734924,151.919373 
	C412.370819,167.437149 456.758301,212.568314 476.896545,282.868835 
	C479.747803,292.822235 480.498047,303.377502 482.457153,315.064545 
	C491.631012,306.517151 500.927277,298.947083 508.935944,290.198334 
	C538.170959,258.261871 556.224670,220.191422 568.492126,179.077698 
	C570.102173,173.681610 568.032471,169.971603 563.522949,167.339874 
	C545.162476,156.624695 527.001221,145.533722 508.286621,135.474075 
	C498.722626,130.333176 488.143707,127.080299 477.974060,122.533524 
	C477.749664,122.583145 477.525238,122.632767 477.300842,122.682404 
	C477.447632,122.896667 477.594421,123.110931 477.700500,124.077209 
	C484.245789,141.369492 489.496277,158.970154 491.041595,178.658005 
	C489.831543,177.320190 489.394775,176.880066 489.005829,176.401138 
	C470.039062,153.045410 447.238525,134.240677 421.236206,119.217812 
	C419.827606,118.403999 418.646759,117.196014 417.233063,115.374184 
M429.040314,524.898621 
	C440.114899,527.049194 449.419861,523.300171 457.384430,515.925598 
	C466.536682,507.451233 475.862488,499.098480 484.346252,489.979675 
	C518.674561,453.081573 541.784546,409.614716 557.971985,362.222076 
	C569.404785,328.749664 576.535828,294.296234 580.823914,259.244354 
	C581.965637,249.911453 582.246582,240.473221 582.922729,231.083359 
	C582.435791,231.003708 581.948792,230.924072 581.461792,230.844421 
	C580.919067,232.013687 580.375793,233.182693 579.833679,234.352249 
	C570.801697,253.837692 560.874939,272.803955 547.880798,290.022003 
	C544.801270,294.102631 541.981201,298.379089 538.382202,302.840637 
	C522.229797,321.398438 504.705017,338.323700 483.052979,350.561005 
	C481.030182,351.704254 479.551208,354.949829 479.045624,357.465637 
	C472.000610,392.522736 456.240662,422.995941 430.875610,448.195770 
	C376.287079,502.428772 295.072418,514.894958 226.314728,479.953766 
	C225.137695,479.355621 223.711380,479.247986 222.241211,478.870331 
	C222.456772,490.565826 228.300278,514.189453 234.707626,530.614380 
	C248.615952,566.267761 271.171692,596.119568 296.954102,623.840332 
	C300.584839,627.743958 304.299683,627.259155 308.649353,625.176392 
	C336.968170,611.616699 363.573700,595.328918 388.089844,575.682068 
	C388.983765,574.965698 389.607574,573.912231 390.751465,572.544495 
	C372.061737,569.113281 354.410858,565.313965 336.683289,556.632812 
	C370.295197,551.724670 400.380524,541.342712 429.040314,524.898621 
M71.093941,324.226013 
	C68.858353,327.327576 66.898521,330.682434 64.330292,333.478455 
	C58.827709,339.469025 58.094135,346.363129 59.306244,353.966431 
	C66.769943,400.784546 84.900230,443.193481 111.581352,482.212830 
	C146.106842,532.703979 190.385361,573.099792 240.399002,607.635742 
	C241.563904,608.440125 243.091599,608.719238 245.744827,609.742859 
	C239.820099,601.012146 234.091660,593.965759 229.895935,586.101501 
	C220.760086,568.977844 212.405273,551.437561 203.845871,533.316406 
	C195.597473,509.928802 190.812302,485.951630 190.814255,461.038757 
	C190.814499,457.948456 188.762024,454.495026 186.792923,451.857849 
	C184.233337,448.429810 180.695404,445.751526 177.767181,442.576569 
	C138.815765,400.342468 124.583458,350.438049 133.453247,294.184570 
	C140.799744,247.591995 165.087372,210.815704 202.477478,182.461395 
	C205.981201,179.804428 209.557495,177.243164 213.568909,174.292618 
	C187.605621,163.146011 161.174103,157.303131 133.676514,155.986282 
	C103.974319,154.563843 75.011177,159.473770 46.171375,165.772141 
	C42.350178,166.606659 41.054047,168.290863 40.679348,172.041626 
	C37.903610,199.827072 38.611420,227.559677 41.591255,255.268066 
	C42.193230,260.865601 43.147125,266.425262 44.118122,273.265869 
	C58.044281,256.158203 71.970238,241.414963 90.811302,229.664474 
	C78.544487,260.839569 71.899788,291.670807 71.093941,324.226013 
M1652.499268,551.000183 
	C1662.125488,550.380859 1671.836792,550.372559 1681.364136,549.044312 
	C1749.254883,539.578552 1798.105225,504.119537 1826.567505,441.452026 
	C1834.121460,424.820038 1838.660156,407.537567 1837.696533,388.824860 
	C1836.806274,371.540924 1837.507080,354.175049 1837.507080,336.845245 
	C1837.507080,335.227051 1837.507080,333.608856 1837.507080,331.745239 
	C1771.091553,331.745239 1705.193237,331.745239 1639.363525,331.745239 
	C1639.363525,350.547302 1639.363525,369.102570 1639.363525,387.946930 
	C1683.508789,387.946930 1727.291382,387.946930 1771.250732,387.946930 
	C1771.165894,389.060791 1771.202271,389.889313 1771.028809,390.671295 
	C1762.842407,427.556000 1743.343506,455.823608 1708.385376,471.998383 
	C1684.743652,482.937225 1659.802124,484.051941 1634.570190,479.913940 
	C1593.582886,473.192047 1563.748047,451.426758 1547.938232,412.501617 
	C1535.366211,381.548096 1534.277466,349.255859 1540.561401,316.829254 
	C1546.431641,286.537537 1560.694946,260.880341 1586.667603,243.054474 
	C1610.967773,226.376419 1638.265381,221.537720 1667.111084,224.935562 
	C1702.705444,229.128387 1729.981445,246.091660 1746.563721,278.567505 
	C1747.988525,281.357941 1749.500244,282.269348 1752.579102,282.244843 
	C1771.740601,282.092133 1790.904053,282.167908 1810.066772,282.167908 
	C1816.877319,282.167908 1823.687988,282.167877 1830.456909,282.167877 
	C1830.533936,281.457489 1830.657715,281.122833 1830.589111,280.833710 
	C1818.300781,228.930969 1788.352295,191.104858 1739.717285,169.005798 
	C1698.908081,150.462708 1655.804321,147.487823 1612.205322,155.060379 
	C1546.813354,166.418106 1500.191162,202.967224 1474.187988,264.119965 
	C1454.544312,310.316864 1452.808716,358.514587 1463.832397,407.071686 
	C1474.200806,452.743011 1497.811157,490.177460 1536.595581,517.236084 
	C1571.080566,541.295288 1609.918213,550.909546 1652.499268,551.000183 
M1896.000000,335.500000 
	C1896.000000,406.229156 1896.000000,476.958282 1896.000000,547.507935 
	C1922.678711,547.507935 1948.593018,547.507935 1974.981201,547.507935 
	C1974.981201,490.620911 1974.981201,434.060303 1974.981201,377.433533 
	C2030.859375,377.433533 2086.259033,377.433533 2142.066895,377.433533 
	C2142.066895,434.274536 2142.066895,490.851318 2142.066895,547.572754 
	C2168.535889,547.572754 2194.595215,547.572754 2220.711426,547.572754 
	C2220.711426,416.755737 2220.711426,286.202423 2220.711426,155.600845 
	C2194.441895,155.600845 2168.461426,155.600845 2141.980957,155.600845 
	C2141.980957,208.434235 2141.980957,261.168335 2141.980957,313.944946 
	C2086.068604,313.944946 2030.656616,313.944946 1974.803467,313.944946 
	C1974.803467,261.154602 1974.803467,208.580795 1974.803467,155.793701 
	C1948.332397,155.793701 1922.303711,155.793701 1896.000000,155.793701 
	C1896.000000,215.558945 1896.000000,275.029480 1896.000000,335.500000 
M885.578308,477.176025 
	C881.939026,477.529083 878.303894,477.933868 874.659851,478.227325 
	C830.570068,481.777863 790.839783,459.640930 772.286560,419.589142 
	C752.861816,377.656128 752.270752,334.290344 768.654114,291.491272 
	C783.702026,252.181091 812.969299,228.931549 855.393250,224.670288 
	C904.302490,219.757568 948.093750,241.606476 968.926758,288.344025 
	C970.185913,291.168976 971.517029,292.270477 974.715332,292.251129 
	C999.546631,292.100708 1024.379272,292.173035 1049.211426,292.153351 
	C1050.430786,292.152374 1051.650024,291.936371 1053.054565,291.802917 
	C1052.597412,289.946838 1052.284302,288.491608 1051.877808,287.062958 
	C1050.968018,283.866455 1050.075073,280.662933 1049.064697,277.497498 
	C1032.151245,224.505417 998.896118,186.123199 946.884827,165.404236 
	C910.989258,151.105026 873.399170,148.519989 835.414551,153.954971 
	C773.676636,162.788666 727.361511,194.725418 700.352478,251.010727 
	C670.687988,312.829712 669.902588,376.841400 695.172058,440.306580 
	C715.692505,491.844269 753.671753,525.956604 806.796326,542.420898 
	C839.332825,552.504517 872.652588,553.309448 906.120178,548.040833 
	C961.110291,539.384033 1003.714294,511.922577 1032.287476,463.708710 
	C1042.084961,447.176666 1048.629272,429.313324 1053.135376,410.163391 
	C1051.086792,410.163391 1049.459473,410.163391 1047.832153,410.163391 
	C1024.499878,410.163391 1001.164795,410.355316 977.837463,410.016022 
	C972.606323,409.939911 970.189819,411.442200 967.906433,416.221680 
	C951.450134,450.667847 924.392212,471.234802 885.578308,477.176025 
M1174.861938,331.650848 
	C1187.907837,356.679382 1201.007935,381.679993 1213.915527,406.779633 
	C1215.208496,409.294189 1215.905884,412.407990 1215.914185,415.246490 
	C1216.038452,457.568726 1216.000000,499.891449 1216.000000,542.214050 
	C1216.000000,543.984619 1216.000000,545.755188 1216.000000,547.530212 
	C1242.634766,547.530212 1268.692749,547.530212 1295.000000,547.530212 
	C1295.000000,545.409851 1295.000000,543.594055 1295.000000,541.778320 
	C1295.000000,499.455719 1294.968018,457.133057 1295.080933,414.810760 
	C1295.087524,412.301605 1295.796631,409.555145 1296.956055,407.322723 
	C1339.732056,324.956177 1382.600830,242.637802 1425.446045,160.307190 
	C1426.155884,158.943008 1426.728760,157.507462 1427.640137,155.500061 
	C1398.439209,155.500061 1370.133057,155.461044 1341.828003,155.623871 
	C1340.515015,155.631424 1338.625000,157.158646 1337.989868,158.459549 
	C1314.247925,207.084564 1290.624268,255.767441 1266.977905,304.439117 
	C1263.495850,311.606201 1259.979858,318.756744 1256.205322,326.475769 
	C1255.450195,325.164673 1255.095825,324.627991 1254.817383,324.054413 
	C1228.211670,269.252747 1201.575684,214.465683 1175.102051,159.600250 
	C1173.533325,156.348801 1171.743530,155.407684 1168.308350,155.424896 
	C1141.649048,155.558578 1114.988892,155.494598 1088.328979,155.509064 
	C1086.748169,155.509918 1085.167480,155.659973 1082.841187,155.778625 
	C1113.579712,214.596069 1144.006714,272.817413 1174.861938,331.650848 
M2371.833496,324.499939 
	C2371.833496,398.884430 2371.833496,473.268921 2371.833496,547.603088 
	C2398.423584,547.603088 2424.199463,547.603088 2450.518066,547.603088 
	C2450.518066,437.656128 2450.518066,327.939911 2450.518066,217.711151 
	C2486.949219,217.711151 2522.838135,217.711151 2558.553955,217.711151 
	C2558.553955,196.754074 2558.553955,176.312225 2558.553955,155.807587 
	C2460.372559,155.807587 2362.473633,155.807587 2264.485352,155.807587 
	C2264.485352,176.672958 2264.485352,197.228821 2264.485352,218.194275 
	C2300.384766,218.194275 2335.964355,218.194275 2371.833496,218.194275 
	C2371.833496,253.570312 2371.833496,288.535095 2371.833496,324.499939 
M297.339264,273.204071 
	C284.674042,257.042908 267.224365,252.200851 247.634384,250.943237 
	C234.119385,250.075623 225.576599,255.419708 218.424683,266.439484 
	C194.158173,303.829803 189.561966,344.888092 193.734177,388.490509 
	C194.540146,387.722260 194.873276,387.555145 194.946182,387.310516 
	C195.373291,385.877228 195.736755,384.425079 196.126770,382.980682 
	C202.578079,359.089569 214.965698,339.123627 234.990768,324.208252 
	C251.566650,311.861938 270.455719,304.791077 290.335083,300.016266 
	C296.255127,298.594360 302.223297,297.372681 309.800903,295.698883 
	C305.502960,287.851746 301.644897,280.807709 297.339264,273.204071 
M319.771423,213.741928 
	C334.946472,231.991699 343.421387,252.776901 344.238922,276.678497 
	C344.902344,296.075226 341.272583,314.731384 335.605164,333.110565 
	C334.263031,337.463074 332.731812,341.757263 331.134796,346.535431 
	C348.145233,349.994720 363.840118,349.401520 378.335541,340.094727 
	C392.354523,331.093842 400.948822,317.795685 407.271057,302.829041 
	C407.956696,301.205902 407.851593,298.783722 407.164795,297.124908 
	C403.867401,289.160889 400.938263,280.926208 396.614471,273.526154 
	C379.256195,243.817734 353.303162,223.442139 323.306549,207.705200 
	C319.033630,205.463531 314.553650,203.616440 310.169525,201.586731 
	C309.589630,202.323685 309.009766,203.060638 308.429901,203.797592 
	C310.374054,205.085999 312.477112,206.192291 314.219177,207.712311 
	C316.088409,209.343277 317.618225,211.363251 319.771423,213.741928 
M321.468140,432.993927 
	C355.073456,428.702179 384.637848,415.019928 412.039642,394.674774 
	C410.941040,394.258575 410.642029,394.023773 410.401855,394.073456 
	C408.451294,394.476654 406.501648,394.893219 404.570343,395.379547 
	C377.181976,402.276245 351.178223,398.912811 326.623688,384.858521 
	C310.109192,375.406189 296.335602,362.706390 283.738251,348.611877 
	C281.363770,345.955170 278.882019,343.394348 276.133362,340.450470 
	C264.619049,353.231323 257.866180,366.990234 258.437042,383.746216 
	C259.017120,400.771729 266.572052,415.047211 276.369293,428.347473 
	C277.390991,429.734497 279.593994,430.593994 281.405670,431.001526 
	C294.329559,433.908997 307.392517,434.652710 321.468140,432.993927 
M2257.823730,789.907104 
	C2264.246582,790.584900 2270.692383,791.992615 2277.087891,791.794189 
	C2292.129883,791.327637 2303.566650,782.661133 2307.688721,768.951172 
	C2309.058838,764.395508 2309.710693,759.464050 2309.752441,754.696106 
	C2309.957275,731.367859 2309.850342,708.036865 2309.833008,684.706848 
	C2309.832031,683.274536 2309.654053,681.842346 2309.561279,680.447144 
	C2303.059570,680.447144 2296.985596,680.447144 2290.247314,680.447144 
	C2290.247314,684.537048 2290.247314,688.362793 2290.247314,693.312561 
	C2282.090088,681.100403 2271.519531,677.634094 2258.803467,679.781494 
	C2245.815674,681.974854 2237.836182,690.014526 2233.942871,702.214844 
	C2230.560791,712.813904 2230.690918,723.617432 2234.187744,734.139343 
	C2239.060791,748.803040 2251.275879,756.803345 2266.722168,756.143188 
	C2276.689209,755.717102 2284.299316,751.227478 2290.168945,742.892273 
	C2290.402344,749.503662 2290.634277,755.971802 2289.638916,762.245117 
	C2288.694336,768.196472 2284.728271,772.452271 2278.708252,774.037048 
	C2266.361328,777.287415 2257.792480,773.225647 2253.510986,763.443237 
	C2247.353516,763.443237 2241.274170,763.443237 2234.860840,763.443237 
	C2237.320801,776.732117 2244.811035,785.200256 2257.823730,789.907104 
M1869.770752,682.076904 
	C1865.821533,685.416199 1861.872192,688.755554 1857.820068,692.181885 
	C1857.820068,680.211609 1857.820068,667.725403 1857.820068,655.189392 
	C1851.132935,655.189392 1845.030762,655.189392 1838.826660,655.189392 
	C1838.826660,688.558716 1838.826660,721.733032 1838.826660,754.907227 
	C1845.262329,754.907227 1851.351440,754.907227 1857.847656,754.907227 
	C1857.847656,750.599854 1857.847656,746.538818 1857.847656,741.197632 
	C1866.023315,754.712830 1877.411621,758.181641 1890.899048,755.277588 
	C1905.271729,752.183105 1912.919800,742.130432 1915.461792,728.330994 
	C1916.616333,722.062988 1916.593872,715.355225 1915.837280,708.997925 
	C1913.084473,685.865723 1891.675781,673.223938 1869.770752,682.076904 
M1675.026245,681.427673 
	C1689.061523,672.220154 1705.641357,676.041321 1714.190674,690.334595 
	C1714.887939,691.500366 1716.454834,692.828125 1717.672729,692.884033 
	C1723.473999,693.150696 1729.294189,693.003418 1735.616455,693.003418 
	C1735.069092,691.032410 1734.705444,689.438049 1734.186279,687.896118 
	C1723.583008,656.405334 1687.965820,653.694092 1668.429565,663.589783 
	C1641.633667,677.162476 1635.518799,720.256653 1657.052734,742.667358 
	C1672.975220,759.238037 1704.012939,760.843140 1721.421875,745.872070 
	C1728.672607,739.636780 1733.515991,731.876343 1735.452515,721.826782 
	C1729.963135,721.826782 1724.833618,722.001892 1719.723877,721.760193 
	C1716.726685,721.618469 1715.156616,722.516541 1713.565186,725.255615 
	C1704.100830,741.546082 1680.692993,742.807007 1669.730469,727.997620 
	C1661.470459,716.839050 1661.022949,692.052063 1675.026245,681.427673 
M1476.380615,711.995850 
	C1475.629028,720.732056 1476.385010,729.259399 1479.998901,737.366638 
	C1488.350098,756.101562 1513.039307,762.539734 1528.114624,749.807495 
	C1530.610352,747.699585 1532.526001,744.904785 1535.226685,741.840881 
	C1535.226685,746.733154 1535.226685,750.840271 1535.226685,754.943604 
	C1541.622681,754.943604 1547.704956,754.943604 1553.921143,754.943604 
	C1553.921143,730.005371 1553.921143,705.296936 1553.921143,680.158569 
	C1552.217407,680.158569 1550.760010,680.158508 1549.302734,680.158508 
	C1544.682129,680.158508 1540.061646,680.158569 1534.893677,680.158569 
	C1534.893677,684.713257 1534.893677,688.868774 1534.893677,693.841125 
	C1526.310425,680.731689 1513.518799,676.141541 1499.279297,680.720703 
	C1484.595093,685.442810 1478.459106,696.750122 1476.380615,711.995850 
M2339.503418,755.174744 
	C2342.753418,755.174744 2346.003174,755.174744 2349.517578,755.174744 
	C2349.517578,748.659363 2349.468506,742.848694 2349.529053,737.039124 
	C2349.622559,728.056580 2349.290771,719.031433 2350.063965,710.104492 
	C2350.887207,700.600464 2358.524658,694.666138 2367.935791,695.080627 
	C2377.341553,695.494873 2383.538330,701.597961 2384.002197,711.386475 
	C2384.317383,718.033447 2384.138184,724.704590 2384.152344,731.364990 
	C2384.169189,739.148254 2384.156250,746.931519 2384.156250,754.937622 
	C2390.677979,754.937622 2396.738525,754.937622 2402.941895,754.937622 
	C2402.941895,737.925415 2403.740234,721.100647 2402.723633,704.386169 
	C2401.644531,686.642334 2386.367432,676.232300 2368.826416,679.574585 
	C2360.791016,681.105652 2354.692627,685.332458 2349.494629,693.379578 
	C2349.494629,679.634399 2349.494629,667.538025 2349.494629,655.284241 
	C2342.896484,655.284241 2336.684814,655.284241 2330.402832,655.284241 
	C2330.402832,688.633240 2330.402832,721.691956 2330.402832,755.174744 
	C2333.271240,755.174744 2335.897949,755.174744 2339.503418,755.174744 
M2111.275635,694.854675 
	C2113.912109,700.880615 2118.085205,705.511230 2124.143066,708.121216 
	C2129.922363,710.611206 2135.944092,712.544861 2141.694580,715.094238 
	C2146.191406,717.087769 2151.098877,718.914612 2154.648926,722.117859 
	C2161.133789,727.969055 2157.949463,738.233093 2149.493896,740.480835 
	C2140.666504,742.827393 2133.916260,738.400940 2130.215088,727.683960 
	C2123.665527,727.683960 2117.045410,727.683960 2110.073730,727.683960 
	C2110.597900,734.316223 2112.646973,740.182312 2117.269043,744.825317 
	C2129.562256,757.174255 2144.520020,758.461792 2160.250732,753.963928 
	C2171.376709,750.782532 2177.960693,741.498535 2178.511719,730.331116 
	C2179.102295,718.361389 2174.218994,709.985596 2163.110596,704.900024 
	C2157.240967,702.212769 2151.014404,700.314758 2145.054688,697.809753 
	C2141.408203,696.277100 2137.704590,694.635437 2134.490723,692.381104 
	C2130.536865,689.607727 2129.771729,685.300903 2130.980225,680.749084 
	C2132.150635,676.340637 2135.421387,674.412964 2139.701904,673.763611 
	C2147.541016,672.574219 2151.323242,675.083557 2156.451172,684.889648 
	C2163.123535,684.889648 2169.728760,684.889648 2176.525146,684.889648 
	C2175.436768,674.571899 2170.596436,667.077454 2161.639893,662.486572 
	C2153.216064,658.168823 2144.224121,657.445984 2134.931885,658.778992 
	C2115.533203,661.561890 2106.411133,674.963806 2111.275635,694.854675 
M782.311462,661.987976 
	C777.244995,661.212341 772.193481,659.911316 767.109131,659.766968 
	C755.370422,659.433594 743.615784,659.661194 731.719910,659.661194 
	C731.719910,691.675720 731.719910,723.229065 731.719910,754.814392 
	C738.170959,754.814392 744.380615,754.814392 750.841858,754.814392 
	C750.841858,748.822571 750.841919,743.186157 750.841919,737.549683 
	C750.841919,731.773438 750.841858,725.997192 750.841858,719.841309 
	C757.239990,719.841309 763.193481,719.963013 769.140442,719.817932 
	C785.320068,719.423035 797.179016,710.655945 799.864746,697.245789 
	C803.053894,681.322144 797.150696,669.005798 782.311462,661.987976 
M1797.613281,750.125732 
	C1807.164307,727.018921 1816.715454,703.912109 1826.441895,680.381104 
	C1819.023315,680.381104 1812.266479,680.381104 1805.218506,680.381104 
	C1799.107056,696.730896 1792.955078,713.189087 1786.535645,730.362732 
	C1785.712158,728.455627 1785.232056,727.408569 1784.803345,726.340942 
	C1779.118042,712.180847 1773.485962,697.998962 1767.690063,683.884399 
	C1767.096924,682.439697 1765.587646,680.394348 1764.409668,680.329346 
	C1758.038696,679.978027 1751.638062,680.162842 1744.719360,680.162842 
	C1745.498413,682.061035 1745.970703,683.267456 1746.484863,684.455811 
	C1755.842896,706.081177 1765.281494,727.672607 1774.446411,749.379578 
	C1775.325195,751.460510 1775.227417,754.556213 1774.352417,756.671753 
	C1770.291992,766.487793 1765.789795,776.120728 1761.466797,785.828613 
	C1760.767212,787.399719 1760.174438,789.018311 1759.423828,790.884644 
	C1766.970459,790.884644 1773.787354,790.884644 1780.723755,790.884644 
	C1786.240356,777.478699 1791.732056,764.133606 1797.613281,750.125732 
M2000.034668,737.422058 
	C2001.018677,734.725830 2002.002686,732.029541 2003.171265,728.827515 
	C1996.508667,728.827515 1990.692749,728.741028 1984.884399,728.911133 
	C1983.893433,728.940125 1982.534912,729.836487 1982.023071,730.723022 
	C1977.034668,739.363647 1970.106323,742.440430 1960.774414,739.968628 
	C1953.130737,737.944031 1948.801758,731.513794 1948.767578,721.516113 
	C1957.692627,721.516113 1966.629883,721.516113 1975.567017,721.516113 
	C1984.668701,721.516113 1993.770386,721.516113 2004.229980,721.516113 
	C2003.559204,715.175476 2003.702881,709.302002 2002.224731,703.869812 
	C1997.068359,684.921082 1976.882690,675.000061 1955.794800,680.567566 
	C1938.727661,685.073425 1929.429932,698.520996 1929.484009,718.621582 
	C1929.532471,736.672180 1939.306763,750.463379 1955.116455,754.788269 
	C1973.247559,759.748108 1990.514771,753.297241 2000.034668,737.422058 
M1346.249390,753.931213 
	C1360.106323,748.582092 1368.122803,738.436768 1369.817505,723.802612 
	C1371.519531,709.105652 1368.231812,695.851501 1355.725098,686.457153 
	C1341.245728,675.581055 1317.176636,676.995544 1304.391357,689.203796 
	C1291.541382,701.473877 1289.307373,725.114197 1299.560669,740.322083 
	C1308.912964,754.193665 1327.141724,759.660583 1346.249390,753.931213 
M871.983337,723.168030 
	C873.472900,728.056091 874.250427,733.317932 876.583740,737.763062 
	C883.974426,751.842590 901.083435,758.921387 918.148315,755.605103 
	C935.151306,752.300842 946.103271,740.830078 948.226929,724.101318 
	C950.600281,705.405212 943.244507,690.091858 928.527649,683.090698 
	C912.759583,675.589355 892.634766,678.820190 881.409973,690.752258 
	C873.041077,699.648438 871.092651,710.538879 871.983337,723.168030 
M1046.949341,679.310730 
	C1035.092773,680.581787 1024.841675,685.028320 1018.907776,695.856506 
	C1010.896118,710.476135 1010.635010,725.694275 1019.249878,740.038818 
	C1027.468140,753.723145 1040.971802,757.284241 1056.026978,755.945129 
	C1073.959961,754.349976 1085.924683,740.070801 1086.300293,729.018433 
	C1079.669678,729.018433 1073.044434,729.018433 1066.495728,729.018433 
	C1063.149414,737.527771 1056.461792,741.741516 1048.222168,740.676575 
	C1038.260742,739.389099 1033.455322,733.792969 1032.334229,721.736755 
	C1050.453979,721.736755 1068.539551,721.736755 1086.871948,721.736755 
	C1089.015381,711.898254 1087.422363,703.111694 1082.304565,695.100708 
	C1074.269653,682.523193 1061.947266,678.815979 1046.949341,679.310730 
M1449.515869,755.169556 
	C1452.940430,755.169556 1456.365112,755.169556 1459.919067,755.169556 
	C1459.919067,738.608215 1460.456787,722.625549 1459.777954,706.694641 
	C1458.993652,688.286804 1445.438477,677.060059 1427.845459,679.184509 
	C1418.795410,680.277344 1411.644775,684.536011 1406.165039,693.799011 
	C1406.165039,688.362610 1406.165039,684.484741 1406.165039,680.391907 
	C1399.645752,680.391907 1393.571899,680.391907 1387.336792,680.391907 
	C1387.336792,705.396484 1387.336792,730.239197 1387.336792,754.864746 
	C1393.766479,754.864746 1399.854858,754.864746 1406.168945,754.864746 
	C1406.168945,753.750488 1406.169067,752.940369 1406.169067,752.130249 
	C1406.169434,739.476868 1406.034302,726.821594 1406.209229,714.170654 
	C1406.371948,702.393066 1413.483521,694.933960 1424.042969,695.027405 
	C1434.571167,695.120544 1440.823242,702.167725 1440.986206,714.221191 
	C1441.058228,719.547974 1440.998535,724.876465 1440.998535,730.204224 
	C1440.998535,738.469727 1440.998535,746.735168 1440.998535,755.169556 
	C1443.899292,755.169556 1446.214722,755.169556 1449.515869,755.169556 
M245.270828,323.745758 
	C238.919586,328.831818 232.052170,333.399017 226.316696,339.104126 
	C210.895157,354.444031 203.042725,373.698334 199.672913,394.861328 
	C197.189651,410.456726 194.510361,407.264374 209.541626,414.295319 
	C221.265701,419.779297 233.588669,423.575317 247.075867,425.930603 
	C220.492676,375.625122 237.661957,338.558746 280.656616,308.898102 
	C267.989349,311.306793 256.797852,317.002167 245.270828,323.745758 
M1162.628662,740.858398 
	C1165.230957,726.843933 1160.642944,718.899719 1147.237427,714.459595 
	C1144.092407,713.417847 1140.810303,712.797485 1137.621582,711.878235 
	C1133.323364,710.639160 1128.967407,709.525696 1124.799316,707.932068 
	C1121.210815,706.560059 1119.246338,703.778625 1119.932617,699.666565 
	C1120.611084,695.601074 1123.465454,693.771301 1127.121338,693.089905 
	C1134.565430,691.702332 1140.459229,694.984863 1143.755127,701.932251 
	C1144.293091,703.065918 1145.467773,704.659668 1146.417603,704.709229 
	C1151.633667,704.981445 1156.871338,704.839111 1162.428223,704.839111 
	C1161.221680,696.723999 1157.994507,690.493835 1152.030273,686.002441 
	C1141.770874,678.276489 1130.223633,677.641968 1118.319946,680.949890 
	C1108.014038,683.813843 1102.233398,691.314392 1102.155273,701.088135 
	C1102.075317,711.088074 1107.029053,717.313843 1117.934326,720.719177 
	C1120.941895,721.658386 1124.062866,722.228333 1127.095337,723.095337 
	C1131.556641,724.370850 1136.106934,725.460022 1140.390503,727.194153 
	C1144.061768,728.680481 1146.187622,731.674988 1145.272339,735.965149 
	C1144.381104,740.142517 1141.436279,741.981323 1137.435547,742.431335 
	C1128.705322,743.413208 1123.689331,740.217041 1119.456299,731.008728 
	C1113.661011,731.008728 1107.865601,731.008728 1101.670532,731.008728 
	C1103.020996,741.511475 1108.430420,748.785950 1117.745239,752.875977 
	C1127.200562,757.027710 1137.189209,757.364929 1147.078857,754.738770 
	C1154.097778,752.874939 1159.677979,748.792664 1162.628662,740.858398 
M1191.289795,730.824097 
	C1186.916992,730.824097 1182.544189,730.824097 1177.952637,730.824097 
	C1180.269165,743.596619 1187.132080,751.711731 1198.922241,754.390625 
	C1205.597778,755.907410 1212.826172,756.181885 1219.658936,755.514709 
	C1228.320435,754.669067 1235.595581,750.355103 1238.818237,741.643982 
	C1243.367432,729.346802 1237.060913,718.462524 1223.135986,714.217163 
	C1216.159546,712.090332 1209.018188,710.495422 1202.072754,708.279602 
	C1198.371216,707.098694 1195.603271,704.470947 1196.300049,700.076782 
	C1197.029663,695.476257 1200.229614,693.389954 1204.687378,692.991150 
	C1212.853271,692.260559 1216.798340,695.016296 1221.408325,704.603638 
	C1227.216431,704.603638 1232.971436,704.603638 1239.026245,704.603638 
	C1237.110107,694.600403 1232.357666,687.026733 1223.251343,682.659241 
	C1214.463745,678.444641 1205.235718,678.227417 1195.973877,680.548645 
	C1185.262939,683.233032 1179.015503,690.710571 1178.824951,700.456299 
	C1178.614014,711.246643 1183.245728,717.166870 1194.874756,720.797302 
	C1197.723145,721.686523 1200.686890,722.203857 1203.540283,723.079590 
	C1208.438843,724.583130 1213.540649,725.747375 1218.049438,728.048645 
	C1220.010620,729.049683 1221.804077,732.569397 1221.687256,734.842957 
	C1221.567627,737.168335 1219.525146,740.257141 1217.432861,741.458496 
	C1210.927612,745.193298 1200.068481,741.274475 1197.597900,734.226379 
	C1196.469116,731.005798 1194.875732,730.595398 1191.289795,730.824097 
M289.552887,234.854919 
	C318.733643,253.089539 331.823364,280.389374 333.907532,314.081299 
	C339.230835,294.827454 340.322235,275.703369 335.458893,256.499634 
	C328.601654,229.422485 311.171997,210.082077 289.171143,193.832108 
	C275.725739,202.167938 268.357697,215.781158 258.095123,228.072159 
	C269.470856,228.248276 279.684601,229.191879 289.552887,234.854919 
M987.515686,716.500488 
	C987.515686,709.918091 987.515686,703.335693 987.515686,696.361694 
	C992.886414,696.361694 997.484436,696.361694 1002.113525,696.361694 
	C1002.113525,690.737793 1002.113525,685.538696 1002.113525,680.026489 
	C997.088135,680.026489 992.462952,680.026489 986.804382,680.026489 
	C988.000488,676.543640 988.153137,672.551208 990.169678,671.030518 
	C993.477844,668.535828 997.996155,667.646057 1002.178528,666.011292 
	C1002.178528,661.476685 1002.178528,656.241577 1002.178528,650.692383 
	C993.784790,650.346069 985.931274,650.849121 978.895630,655.401306 
	C969.945984,661.191895 968.318420,670.434326 967.881287,680.245911 
	C964.674561,680.245911 961.876160,680.245911 958.801941,680.245911 
	C958.801941,685.694275 958.801941,690.909912 958.801941,696.597717 
	C962.016174,696.597717 964.918762,696.597717 968.240112,696.597717 
	C968.240112,716.305420 968.240112,735.545410 968.240112,754.975647 
	C974.781860,754.975647 980.891907,754.975647 987.515686,754.975647 
	C987.515686,742.403625 987.515686,729.952026 987.515686,716.500488 
M2462.953125,680.818848 
	C2457.574219,680.473083 2452.195557,680.127380 2446.467529,679.759216 
	C2446.467529,673.869080 2446.467529,668.096436 2446.467529,662.136047 
	C2439.901855,662.136047 2433.698730,662.136047 2426.965088,662.136047 
	C2426.965088,668.320679 2426.965088,674.214111 2426.965088,680.450562 
	C2423.341553,680.450562 2420.252686,680.450562 2417.235840,680.450562 
	C2417.235840,685.934937 2417.235840,691.033691 2417.235840,696.537842 
	C2420.558350,696.537842 2423.648438,696.537842 2427.157715,696.537842 
	C2427.157715,700.073303 2427.103271,703.203186 2427.167725,706.330688 
	C2427.369385,716.137024 2427.144531,725.982422 2427.971924,735.737488 
	C2428.879883,746.443665 2434.423828,752.412415 2444.958008,754.308777 
	C2450.887939,755.376343 2457.061523,755.093384 2463.311523,755.428772 
	C2463.311523,749.483948 2463.311523,744.376221 2463.311523,738.688477 
	C2460.487061,738.688477 2457.840088,738.898438 2455.237549,738.646973 
	C2448.842529,738.028931 2447.112061,736.406677 2446.755371,729.907776 
	C2446.400146,723.437317 2446.558105,716.937927 2446.520264,710.451111 
	C2446.493408,705.870605 2446.515137,701.289856 2446.515137,696.421204 
	C2452.451172,696.421204 2457.573975,696.421204 2463.153320,696.421204 
	C2463.153320,691.324036 2463.153320,686.540100 2462.953125,680.818848 
M1593.999756,727.500000 
	C1593.999756,703.407532 1593.999756,679.315063 1593.999756,655.286987 
	C1587.024048,655.286987 1580.618408,655.286987 1574.283691,655.286987 
	C1574.283691,688.974548 1574.283691,722.374695 1574.283691,755.713074 
	C1580.976196,755.713074 1587.380615,755.713074 1593.999756,755.713074 
	C1593.999756,746.452087 1593.999756,737.476013 1593.999756,727.500000 
M2020.481934,722.499634 
	C2020.481934,733.276978 2020.481934,744.054382 2020.481934,754.803345 
	C2027.193115,754.803345 2033.403687,754.803345 2039.843872,754.803345 
	C2039.843872,752.624084 2039.842285,750.814636 2039.843994,749.005188 
	C2039.853760,738.526672 2039.656006,728.042725 2039.932129,717.571228 
	C2040.220703,706.622559 2046.461182,700.511902 2057.438721,699.911743 
	C2060.208008,699.760376 2062.992920,699.889160 2065.896973,699.889160 
	C2065.896973,692.612305 2065.896973,685.886902 2065.896973,679.020447 
	C2054.928223,679.245178 2046.764038,684.134766 2039.772217,693.699646 
	C2039.772217,688.448547 2039.772217,684.435730 2039.772217,680.420898 
	C2033.086426,680.420898 2027.017944,680.420898 2020.481934,680.420898 
	C2020.481934,694.286682 2020.481934,707.893127 2020.481934,722.499634 
M831.434143,755.172791 
	C834.588867,755.772034 835.269165,754.374695 835.249695,751.358032 
	C835.174377,739.711731 834.960449,728.037415 835.645264,716.423523 
	C836.272583,705.784912 842.475220,700.433899 853.203918,699.902710 
	C855.966248,699.765930 858.741028,699.882202 861.649902,699.882202 
	C861.649902,692.604797 861.649902,686.004761 861.649902,677.987061 
	C856.320801,679.738586 851.221375,680.673523 846.908630,683.041565 
	C842.637939,685.386475 839.160767,689.176697 834.851074,692.732788 
	C834.851074,688.255676 834.851074,684.333923 834.851074,680.452393 
	C828.408508,680.452393 822.339050,680.452393 816.266174,680.452393 
	C816.266174,705.476807 816.266174,730.206421 816.266174,755.172791 
	C821.172546,755.172791 825.810730,755.172791 831.434143,755.172791 
M1257.138428,743.480042 
	C1257.138428,747.259705 1257.138428,751.039307 1257.138428,754.829956 
	C1263.863892,754.829956 1270.059814,754.829956 1276.184937,754.829956 
	C1276.184937,729.764099 1276.184937,705.062744 1276.184937,680.426086 
	C1269.732666,680.426086 1263.644409,680.426086 1257.138428,680.426086 
	C1257.138428,701.302917 1257.138428,721.895020 1257.138428,743.480042 
M2195.832275,687.571899 
	C2195.832275,709.966309 2195.832275,732.360779 2195.832275,754.839600 
	C2202.449219,754.839600 2208.629639,754.839600 2214.699707,754.839600 
	C2214.699707,729.826050 2214.699707,705.141968 2214.699707,680.431519 
	C2208.329102,680.431519 2202.261963,680.431519 2195.832275,680.431519 
	C2195.832275,682.661926 2195.832275,684.627136 2195.832275,687.571899 
M1277.005005,652.664795 
	C1276.030884,651.776123 1275.167603,650.708069 1274.064941,650.027588 
	C1266.310303,645.242249 1255.738892,649.646240 1255.152954,657.850830 
	C1254.820923,662.499084 1256.791626,665.880554 1260.912109,667.939087 
	C1265.565063,670.263733 1272.398315,669.383667 1275.811279,666.026550 
	C1279.655884,662.244995 1279.830444,657.918884 1277.005005,652.664795 
M2213.892090,666.460754 
	C2218.029785,661.604431 2218.432617,656.172485 2214.953125,652.148499 
	C2211.229492,647.841919 2203.419189,646.390198 2198.670654,650.140076 
	C2196.166260,652.117737 2193.802734,656.053040 2193.889160,659.031433 
	C2193.975830,662.010071 2196.550293,665.898132 2199.187744,667.599121 
	C2203.533447,670.402283 2208.688477,669.822021 2213.892090,666.460754 
z"/>
<path fill="#010101" opacity="1.000000" stroke="none" 
	d="
M1652.000244,551.000183 
	C1609.918213,550.909546 1571.080566,541.295288 1536.595581,517.236084 
	C1497.811157,490.177460 1474.200806,452.743011 1463.832397,407.071686 
	C1452.808716,358.514587 1454.544312,310.316864 1474.187988,264.119965 
	C1500.191162,202.967224 1546.813354,166.418106 1612.205322,155.060379 
	C1655.804321,147.487823 1698.908081,150.462708 1739.717285,169.005798 
	C1788.352295,191.104858 1818.300781,228.930969 1830.589111,280.833710 
	C1830.657715,281.122833 1830.533936,281.457489 1830.456909,282.167877 
	C1823.687988,282.167877 1816.877319,282.167908 1810.066772,282.167908 
	C1790.904053,282.167908 1771.740601,282.092133 1752.579102,282.244843 
	C1749.500244,282.269348 1747.988525,281.357941 1746.563721,278.567505 
	C1729.981445,246.091660 1702.705444,229.128387 1667.111084,224.935562 
	C1638.265381,221.537720 1610.967773,226.376419 1586.667603,243.054474 
	C1560.694946,260.880341 1546.431641,286.537537 1540.561401,316.829254 
	C1534.277466,349.255859 1535.366211,381.548096 1547.938232,412.501617 
	C1563.748047,451.426758 1593.582886,473.192047 1634.570190,479.913940 
	C1659.802124,484.051941 1684.743652,482.937225 1708.385376,471.998383 
	C1743.343506,455.823608 1762.842407,427.556000 1771.028809,390.671295 
	C1771.202271,389.889313 1771.165894,389.060791 1771.250732,387.946930 
	C1727.291382,387.946930 1683.508789,387.946930 1639.363525,387.946930 
	C1639.363525,369.102570 1639.363525,350.547302 1639.363525,331.745239 
	C1705.193237,331.745239 1771.091553,331.745239 1837.507080,331.745239 
	C1837.507080,333.608856 1837.507080,335.227051 1837.507080,336.845245 
	C1837.507080,354.175049 1836.806274,371.540924 1837.696533,388.824860 
	C1838.660156,407.537567 1834.121460,424.820038 1826.567505,441.452026 
	C1798.105225,504.119537 1749.254883,539.578552 1681.364136,549.044312 
	C1671.836792,550.372559 1662.125488,550.380859 1652.000244,551.000183 
z"/>
<path fill="#010101" opacity="1.000000" stroke="none" 
	d="
M1896.000000,335.000000 
	C1896.000000,275.029480 1896.000000,215.558945 1896.000000,155.793701 
	C1922.303711,155.793701 1948.332397,155.793701 1974.803467,155.793701 
	C1974.803467,208.580795 1974.803467,261.154602 1974.803467,313.944946 
	C2030.656616,313.944946 2086.068604,313.944946 2141.980957,313.944946 
	C2141.980957,261.168335 2141.980957,208.434235 2141.980957,155.600845 
	C2168.461426,155.600845 2194.441895,155.600845 2220.711426,155.600845 
	C2220.711426,286.202423 2220.711426,416.755737 2220.711426,547.572754 
	C2194.595215,547.572754 2168.535889,547.572754 2142.066895,547.572754 
	C2142.066895,490.851318 2142.066895,434.274536 2142.066895,377.433533 
	C2086.259033,377.433533 2030.859375,377.433533 1974.981201,377.433533 
	C1974.981201,434.060303 1974.981201,490.620911 1974.981201,547.507935 
	C1948.593018,547.507935 1922.678711,547.507935 1896.000000,547.507935 
	C1896.000000,476.958282 1896.000000,406.229156 1896.000000,335.000000 
z"/>
<path fill="#010101" opacity="1.000000" stroke="none" 
	d="
M886.021118,477.143616 
	C924.392212,471.234802 951.450134,450.667847 967.906433,416.221680 
	C970.189819,411.442200 972.606323,409.939911 977.837463,410.016022 
	C1001.164795,410.355316 1024.499878,410.163391 1047.832153,410.163391 
	C1049.459473,410.163391 1051.086792,410.163391 1053.135376,410.163391 
	C1048.629272,429.313324 1042.084961,447.176666 1032.287476,463.708710 
	C1003.714294,511.922577 961.110291,539.384033 906.120178,548.040833 
	C872.652588,553.309448 839.332825,552.504517 806.796326,542.420898 
	C753.671753,525.956604 715.692505,491.844269 695.172058,440.306580 
	C669.902588,376.841400 670.687988,312.829712 700.352478,251.010727 
	C727.361511,194.725418 773.676636,162.788666 835.414551,153.954971 
	C873.399170,148.519989 910.989258,151.105026 946.884827,165.404236 
	C998.896118,186.123199 1032.151245,224.505417 1049.064697,277.497498 
	C1050.075073,280.662933 1050.968018,283.866455 1051.877808,287.062958 
	C1052.284302,288.491608 1052.597412,289.946838 1053.054565,291.802917 
	C1051.650024,291.936371 1050.430786,292.152374 1049.211426,292.153351 
	C1024.379272,292.173035 999.546631,292.100708 974.715332,292.251129 
	C971.517029,292.270477 970.185913,291.168976 968.926758,288.344025 
	C948.093750,241.606476 904.302490,219.757568 855.393250,224.670288 
	C812.969299,228.931549 783.702026,252.181091 768.654114,291.491272 
	C752.270752,334.290344 752.861816,377.656128 772.286560,419.589142 
	C790.839783,459.640930 830.570068,481.777863 874.659851,478.227325 
	C878.303894,477.933868 881.939026,477.529083 886.021118,477.143616 
z"/>
<path fill="#010101" opacity="1.000000" stroke="none" 
	d="
M1174.647827,331.344818 
	C1144.006714,272.817413 1113.579712,214.596069 1082.841187,155.778625 
	C1085.167480,155.659973 1086.748169,155.509918 1088.328979,155.509064 
	C1114.988892,155.494598 1141.649048,155.558578 1168.308350,155.424896 
	C1171.743530,155.407684 1173.533325,156.348801 1175.102051,159.600250 
	C1201.575684,214.465683 1228.211670,269.252747 1254.817383,324.054413 
	C1255.095825,324.627991 1255.450195,325.164673 1256.205322,326.475769 
	C1259.979858,318.756744 1263.495850,311.606201 1266.977905,304.439117 
	C1290.624268,255.767441 1314.247925,207.084564 1337.989868,158.459549 
	C1338.625000,157.158646 1340.515015,155.631424 1341.828003,155.623871 
	C1370.133057,155.461044 1398.439209,155.500061 1427.640137,155.500061 
	C1426.728760,157.507462 1426.155884,158.943008 1425.446045,160.307190 
	C1382.600830,242.637802 1339.732056,324.956177 1296.956055,407.322723 
	C1295.796631,409.555145 1295.087524,412.301605 1295.080933,414.810760 
	C1294.968018,457.133057 1295.000000,499.455719 1295.000000,541.778320 
	C1295.000000,543.594055 1295.000000,545.409851 1295.000000,547.530212 
	C1268.692749,547.530212 1242.634766,547.530212 1216.000000,547.530212 
	C1216.000000,545.755188 1216.000000,543.984619 1216.000000,542.214050 
	C1216.000000,499.891449 1216.038452,457.568726 1215.914185,415.246490 
	C1215.905884,412.407990 1215.208496,409.294189 1213.915527,406.779633 
	C1201.007935,381.679993 1187.907837,356.679382 1174.647827,331.344818 
z"/>
<path fill="#000000" opacity="1.000000" stroke="none" 
	d="
M2371.833496,323.999908 
	C2371.833496,288.535095 2371.833496,253.570312 2371.833496,218.194275 
	C2335.964355,218.194275 2300.384766,218.194275 2264.485352,218.194275 
	C2264.485352,197.228821 2264.485352,176.672958 2264.485352,155.807587 
	C2362.473633,155.807587 2460.372559,155.807587 2558.553955,155.807587 
	C2558.553955,176.312225 2558.553955,196.754074 2558.553955,217.711151 
	C2522.838135,217.711151 2486.949219,217.711151 2450.518066,217.711151 
	C2450.518066,327.939911 2450.518066,437.656128 2450.518066,547.603088 
	C2424.199463,547.603088 2398.423584,547.603088 2371.833496,547.603088 
	C2371.833496,473.268921 2371.833496,398.884430 2371.833496,323.999908 
z"/>
<path fill="#252525" opacity="1.000000" stroke="none" 
	d="
M71.503830,323.731476 
	C71.899788,291.670807 78.544487,260.839569 90.811302,229.664474 
	C71.970238,241.414963 58.044281,256.158203 44.118122,273.265869 
	C43.147125,266.425262 42.193230,260.865601 41.591255,255.268066 
	C38.611420,227.559677 37.903610,199.827072 40.679348,172.041626 
	C41.054047,168.290863 42.350178,166.606659 46.171375,165.772141 
	C75.011177,159.473770 103.974319,154.563843 133.676514,155.986282 
	C161.174103,157.303131 187.605621,163.146011 213.568909,174.292618 
	C209.557495,177.243164 205.981201,179.804428 202.477478,182.461395 
	C165.087372,210.815704 140.799744,247.591995 133.453247,294.184570 
	C124.583458,350.438049 138.815765,400.342468 177.767181,442.576569 
	C180.695404,445.751526 184.233337,448.429810 186.792923,451.857849 
	C188.762024,454.495026 190.814499,457.948456 190.814255,461.038757 
	C190.812302,485.951630 195.597473,509.928802 203.448029,533.619385 
	C201.839310,533.383423 200.593933,532.910339 199.422592,532.296143 
	C157.039841,510.071411 123.665955,478.527588 100.833305,436.289062 
	C86.575218,409.912750 76.885170,381.978180 73.903084,351.966309 
	C72.969238,342.568024 72.296227,333.143829 71.503830,323.731476 
z"/>
<path fill="#252525" opacity="1.000000" stroke="none" 
	d="
M428.256653,524.729370 
	C400.380524,541.342712 370.295197,551.724670 336.683289,556.632812 
	C354.410858,565.313965 372.061737,569.113281 390.751465,572.544495 
	C389.607574,573.912231 388.983765,574.965698 388.089844,575.682068 
	C363.573700,595.328918 336.968170,611.616699 308.649353,625.176392 
	C304.299683,627.259155 300.584839,627.743958 296.954102,623.840332 
	C271.171692,596.119568 248.615952,566.267761 234.707626,530.614380 
	C228.300278,514.189453 222.456772,490.565826 222.241211,478.870331 
	C223.711380,479.247986 225.137695,479.355621 226.314728,479.953766 
	C295.072418,514.894958 376.287079,502.428772 430.875610,448.195770 
	C456.240662,422.995941 472.000610,392.522736 479.045624,357.465637 
	C479.551208,354.949829 481.030182,351.704254 483.052979,350.561005 
	C504.705017,338.323700 522.229797,321.398438 538.823120,303.131744 
	C539.551880,314.162659 540.391541,324.921814 540.015991,335.638367 
	C539.154846,360.212891 533.979065,383.997650 525.151306,406.947876 
	C510.395050,445.310883 487.514160,477.917847 455.603882,503.959076 
	C446.740753,511.192078 437.385895,517.822510 428.256653,524.729370 
z"/>
<path fill="#252525" opacity="1.000000" stroke="none" 
	d="
M478.023529,122.974068 
	C488.143707,127.080299 498.722626,130.333176 508.286621,135.474075 
	C527.001221,145.533722 545.162476,156.624695 563.522949,167.339874 
	C568.032471,169.971603 570.102173,173.681610 568.492126,179.077698 
	C556.224670,220.191422 538.170959,258.261871 508.935944,290.198334 
	C500.927277,298.947083 491.631012,306.517151 482.457153,315.064545 
	C480.498047,303.377502 479.747803,292.822235 476.896545,282.868835 
	C456.758301,212.568314 412.370819,167.437149 339.734924,151.919373 
	C309.827179,145.529938 280.512054,147.764191 251.614517,157.178345 
	C247.996216,158.357086 245.057739,158.161026 241.715286,156.219528 
	C221.134476,144.264954 198.922470,136.495605 175.613708,130.667664 
	C185.076859,124.480949 194.414139,117.992432 204.501526,113.028069 
	C244.583679,93.302208 287.083221,86.561531 331.412140,90.936874 
	C355.550995,93.319412 378.690765,99.471390 400.731934,109.735077 
	C406.107941,112.238449 411.808533,114.044731 417.359894,116.171532 
	C418.646759,117.196014 419.827606,118.403999 421.236206,119.217812 
	C447.238525,134.240677 470.039062,153.045410 489.005829,176.401138 
	C489.394775,176.880066 489.831543,177.320190 491.041595,178.658005 
	C489.496277,158.970154 484.245789,141.369492 477.789795,123.612076 
	C477.879059,123.146950 478.023529,122.974068 478.023529,122.974068 
z"/>
<path fill="#FF3232" opacity="1.000000" stroke="none" 
	d="
M297.563049,273.483887 
	C301.644897,280.807709 305.502960,287.851746 309.800903,295.698883 
	C302.223297,297.372681 296.255127,298.594360 290.335083,300.016266 
	C270.455719,304.791077 251.566650,311.861938 234.990768,324.208252 
	C214.965698,339.123627 202.578079,359.089569 196.126770,382.980682 
	C195.736755,384.425079 195.373291,385.877228 194.946182,387.310516 
	C194.873276,387.555145 194.540146,387.722260 193.734177,388.490509 
	C189.561966,344.888092 194.158173,303.829803 218.424683,266.439484 
	C225.576599,255.419708 234.119385,250.075623 247.634384,250.943237 
	C267.224365,252.200851 284.674042,257.042908 297.563049,273.483887 
z"/>
<path fill="#FF0202" opacity="1.000000" stroke="none" 
	d="
M319.533813,213.477692 
	C317.618225,211.363251 316.088409,209.343277 314.219177,207.712311 
	C312.477112,206.192291 310.374054,205.085999 308.429901,203.797592 
	C309.009766,203.060638 309.589630,202.323685 310.169525,201.586731 
	C314.553650,203.616440 319.033630,205.463531 323.306549,207.705200 
	C353.303162,223.442139 379.256195,243.817734 396.614471,273.526154 
	C400.938263,280.926208 403.867401,289.160889 407.164795,297.124908 
	C407.851593,298.783722 407.956696,301.205902 407.271057,302.829041 
	C400.948822,317.795685 392.354523,331.093842 378.335541,340.094727 
	C363.840118,349.401520 348.145233,349.994720 331.134796,346.535431 
	C332.731812,341.757263 334.263031,337.463074 335.605164,333.110565 
	C341.272583,314.731384 344.902344,296.075226 344.238922,276.678497 
	C343.421387,252.776901 334.946472,231.991699 319.533813,213.477692 
z"/>
<path fill="#FF0202" opacity="1.000000" stroke="none" 
	d="
M321.015930,433.002228 
	C307.392517,434.652710 294.329559,433.908997 281.405670,431.001526 
	C279.593994,430.593994 277.390991,429.734497 276.369293,428.347473 
	C266.572052,415.047211 259.017120,400.771729 258.437042,383.746216 
	C257.866180,366.990234 264.619049,353.231323 276.133362,340.450470 
	C278.882019,343.394348 281.363770,345.955170 283.738251,348.611877 
	C296.335602,362.706390 310.109192,375.406189 326.623688,384.858521 
	C351.178223,398.912811 377.181976,402.276245 404.570343,395.379547 
	C406.501648,394.893219 408.451294,394.476654 410.401855,394.073456 
	C410.642029,394.023773 410.941040,394.258575 412.039642,394.674774 
	C384.637848,415.019928 355.073456,428.702179 321.015930,433.002228 
z"/>
<path fill="#1731C8" opacity="1.000000" stroke="none" 
	d="
M71.298889,323.978760 
	C72.296227,333.143829 72.969238,342.568024 73.903084,351.966309 
	C76.885170,381.978180 86.575218,409.912750 100.833305,436.289062 
	C123.665955,478.527588 157.039841,510.071411 199.422592,532.296143 
	C200.593933,532.910339 201.839310,533.383423 203.390717,533.994873 
	C212.405273,551.437561 220.760086,568.977844 229.895935,586.101501 
	C234.091660,593.965759 239.820099,601.012146 245.744827,609.742859 
	C243.091599,608.719238 241.563904,608.440125 240.399002,607.635742 
	C190.385361,573.099792 146.106842,532.703979 111.581352,482.212830 
	C84.900230,443.193481 66.769943,400.784546 59.306244,353.966431 
	C58.094135,346.363129 58.827709,339.469025 64.330292,333.478455 
	C66.898521,330.682434 68.858353,327.327576 71.298889,323.978760 
z"/>
<path fill="#1730C7" opacity="1.000000" stroke="none" 
	d="
M417.296478,115.772858 
	C411.808533,114.044731 406.107941,112.238449 400.731934,109.735077 
	C378.690765,99.471390 355.550995,93.319412 331.412140,90.936874 
	C287.083221,86.561531 244.583679,93.302208 204.501526,113.028069 
	C194.414139,117.992432 185.076859,124.480949 175.245117,130.557404 
	C156.556900,129.410385 138.038025,127.535645 119.472473,126.708092 
	C108.723320,126.228951 97.899025,127.435974 85.591736,127.947166 
	C88.192368,126.585426 89.627403,125.783524 91.104294,125.068008 
	C139.747238,101.501534 190.469070,84.606415 244.338348,78.307343 
	C296.080200,72.257027 346.888123,76.049454 396.247803,93.933327 
	C406.880219,97.785637 414.233093,104.314598 417.296478,115.772858 
z"/>
<path fill="#040404" opacity="1.000000" stroke="none" 
	d="
M2257.446289,789.776550 
	C2244.811035,785.200256 2237.320801,776.732117 2234.860840,763.443237 
	C2241.274170,763.443237 2247.353516,763.443237 2253.510986,763.443237 
	C2257.792480,773.225647 2266.361328,777.287415 2278.708252,774.037048 
	C2284.728271,772.452271 2288.694336,768.196472 2289.638916,762.245117 
	C2290.634277,755.971802 2290.402344,749.503662 2290.168945,742.892273 
	C2284.299316,751.227478 2276.689209,755.717102 2266.722168,756.143188 
	C2251.275879,756.803345 2239.060791,748.803040 2234.187744,734.139343 
	C2230.690918,723.617432 2230.560791,712.813904 2233.942871,702.214844 
	C2237.836182,690.014526 2245.815674,681.974854 2258.803467,679.781494 
	C2271.519531,677.634094 2282.090088,681.100403 2290.247314,693.312561 
	C2290.247314,688.362793 2290.247314,684.537048 2290.247314,680.447144 
	C2296.985596,680.447144 2303.059570,680.447144 2309.561279,680.447144 
	C2309.654053,681.842346 2309.832031,683.274536 2309.833008,684.706848 
	C2309.850342,708.036865 2309.957275,731.367859 2309.752441,754.696106 
	C2309.710693,759.464050 2309.058838,764.395508 2307.688721,768.951172 
	C2303.566650,782.661133 2292.129883,791.327637 2277.087891,791.794189 
	C2270.692383,791.992615 2264.246582,790.584900 2257.446289,789.776550 
M2278.026855,737.940857 
	C2287.851807,733.700317 2290.968018,725.622986 2290.436523,715.694458 
	C2289.972168,707.018250 2286.104492,700.353577 2277.676758,697.185242 
	C2269.601074,694.149292 2260.464111,696.747070 2255.568848,703.089539 
	C2249.946289,710.374634 2249.677734,723.548889 2254.993164,731.359741 
	C2259.593506,738.120300 2267.884521,740.645386 2278.026855,737.940857 
z"/>
<path fill="#1731C8" opacity="1.000000" stroke="none" 
	d="
M428.648499,524.814026 
	C437.385895,517.822510 446.740753,511.192078 455.603882,503.959076 
	C487.514160,477.917847 510.395050,445.310883 525.151306,406.947876 
	C533.979065,383.997650 539.154846,360.212891 540.015991,335.638367 
	C540.391541,324.921814 539.551880,314.162659 539.152954,302.994141 
	C541.981201,298.379089 544.801270,294.102631 547.880798,290.022003 
	C560.874939,272.803955 570.801697,253.837692 579.833679,234.352249 
	C580.375793,233.182693 580.919067,232.013687 581.461792,230.844421 
	C581.948792,230.924072 582.435791,231.003708 582.922729,231.083359 
	C582.246582,240.473221 581.965637,249.911453 580.823914,259.244354 
	C576.535828,294.296234 569.404785,328.749664 557.971985,362.222076 
	C541.784546,409.614716 518.674561,453.081573 484.346252,489.979675 
	C475.862488,499.098480 466.536682,507.451233 457.384430,515.925598 
	C449.419861,523.300171 440.114899,527.049194 428.648499,524.814026 
z"/>
<path fill="#030303" opacity="1.000000" stroke="none" 
	d="
M1870.127197,681.946411 
	C1891.675781,673.223938 1913.084473,685.865723 1915.837280,708.997925 
	C1916.593872,715.355225 1916.616333,722.062988 1915.461792,728.330994 
	C1912.919800,742.130432 1905.271729,752.183105 1890.899048,755.277588 
	C1877.411621,758.181641 1866.023315,754.712830 1857.847656,741.197632 
	C1857.847656,746.538818 1857.847656,750.599854 1857.847656,754.907227 
	C1851.351440,754.907227 1845.262329,754.907227 1838.826660,754.907227 
	C1838.826660,721.733032 1838.826660,688.558716 1838.826660,655.189392 
	C1845.030762,655.189392 1851.132935,655.189392 1857.820068,655.189392 
	C1857.820068,667.725403 1857.820068,680.211609 1857.820068,692.181885 
	C1861.872192,688.755554 1865.821533,685.416199 1870.127197,681.946411 
M1870.791748,738.091919 
	C1874.885254,738.216492 1879.179810,739.203186 1883.034668,738.304199 
	C1894.672119,735.590088 1900.330200,721.788940 1895.569092,708.598206 
	C1892.816040,700.971252 1887.178589,696.759277 1879.126953,696.153015 
	C1871.176636,695.554321 1864.781494,698.517822 1860.680542,705.539917 
	C1853.845459,717.243408 1858.045654,731.622192 1870.791748,738.091919 
z"/>
<path fill="#030303" opacity="1.000000" stroke="none" 
	d="
M1674.747803,681.663208 
	C1661.022949,692.052063 1661.470459,716.839050 1669.730469,727.997620 
	C1680.692993,742.807007 1704.100830,741.546082 1713.565186,725.255615 
	C1715.156616,722.516541 1716.726685,721.618469 1719.723877,721.760193 
	C1724.833618,722.001892 1729.963135,721.826782 1735.452515,721.826782 
	C1733.515991,731.876343 1728.672607,739.636780 1721.421875,745.872070 
	C1704.012939,760.843140 1672.975220,759.238037 1657.052734,742.667358 
	C1635.518799,720.256653 1641.633667,677.162476 1668.429565,663.589783 
	C1687.965820,653.694092 1723.583008,656.405334 1734.186279,687.896118 
	C1734.705444,689.438049 1735.069092,691.032410 1735.616455,693.003418 
	C1729.294189,693.003418 1723.473999,693.150696 1717.672729,692.884033 
	C1716.454834,692.828125 1714.887939,691.500366 1714.190674,690.334595 
	C1705.641357,676.041321 1689.061523,672.220154 1674.747803,681.663208 
z"/>
<path fill="#030303" opacity="1.000000" stroke="none" 
	d="
M1476.455811,711.555664 
	C1478.459106,696.750122 1484.595093,685.442810 1499.279297,680.720703 
	C1513.518799,676.141541 1526.310425,680.731689 1534.893677,693.841125 
	C1534.893677,688.868774 1534.893677,684.713257 1534.893677,680.158569 
	C1540.061646,680.158569 1544.682129,680.158508 1549.302734,680.158508 
	C1550.760010,680.158508 1552.217407,680.158569 1553.921143,680.158569 
	C1553.921143,705.296936 1553.921143,730.005371 1553.921143,754.943604 
	C1547.704956,754.943604 1541.622681,754.943604 1535.226685,754.943604 
	C1535.226685,750.840271 1535.226685,746.733154 1535.226685,741.840881 
	C1532.526001,744.904785 1530.610352,747.699585 1528.114624,749.807495 
	C1513.039307,762.539734 1488.350098,756.101562 1479.998901,737.366638 
	C1476.385010,729.259399 1475.629028,720.732056 1476.455811,711.555664 
M1515.478027,739.158081 
	C1528.468872,738.218140 1535.470825,729.876282 1534.998169,715.902832 
	C1534.609741,704.419250 1526.532837,696.147644 1515.565186,696.001343 
	C1504.204956,695.849792 1496.319092,703.805725 1495.843262,715.898315 
	C1495.285278,730.076904 1501.737061,738.076172 1515.478027,739.158081 
z"/>
<path fill="#030303" opacity="1.000000" stroke="none" 
	d="
M2339.014160,755.174744 
	C2335.897949,755.174744 2333.271240,755.174744 2330.402832,755.174744 
	C2330.402832,721.691956 2330.402832,688.633240 2330.402832,655.284241 
	C2336.684814,655.284241 2342.896484,655.284241 2349.494629,655.284241 
	C2349.494629,667.538025 2349.494629,679.634399 2349.494629,693.379578 
	C2354.692627,685.332458 2360.791016,681.105652 2368.826416,679.574585 
	C2386.367432,676.232300 2401.644531,686.642334 2402.723633,704.386169 
	C2403.740234,721.100647 2402.941895,737.925415 2402.941895,754.937622 
	C2396.738525,754.937622 2390.677979,754.937622 2384.156250,754.937622 
	C2384.156250,746.931519 2384.169189,739.148254 2384.152344,731.364990 
	C2384.138184,724.704590 2384.317383,718.033447 2384.002197,711.386475 
	C2383.538330,701.597961 2377.341553,695.494873 2367.935791,695.080627 
	C2358.524658,694.666138 2350.887207,700.600464 2350.063965,710.104492 
	C2349.290771,719.031433 2349.622559,728.056580 2349.529053,737.039124 
	C2349.468506,742.848694 2349.517578,748.659363 2349.517578,755.174744 
	C2346.003174,755.174744 2342.753418,755.174744 2339.014160,755.174744 
z"/>
<path fill="#030303" opacity="1.000000" stroke="none" 
	d="
M2111.154785,694.466675 
	C2106.411133,674.963806 2115.533203,661.561890 2134.931885,658.778992 
	C2144.224121,657.445984 2153.216064,658.168823 2161.639893,662.486572 
	C2170.596436,667.077454 2175.436768,674.571899 2176.525146,684.889648 
	C2169.728760,684.889648 2163.123535,684.889648 2156.451172,684.889648 
	C2151.323242,675.083557 2147.541016,672.574219 2139.701904,673.763611 
	C2135.421387,674.412964 2132.150635,676.340637 2130.980225,680.749084 
	C2129.771729,685.300903 2130.536865,689.607727 2134.490723,692.381104 
	C2137.704590,694.635437 2141.408203,696.277100 2145.054688,697.809753 
	C2151.014404,700.314758 2157.240967,702.212769 2163.110596,704.900024 
	C2174.218994,709.985596 2179.102295,718.361389 2178.511719,730.331116 
	C2177.960693,741.498535 2171.376709,750.782532 2160.250732,753.963928 
	C2144.520020,758.461792 2129.562256,757.174255 2117.269043,744.825317 
	C2112.646973,740.182312 2110.597900,734.316223 2110.073730,727.683960 
	C2117.045410,727.683960 2123.665527,727.683960 2130.215088,727.683960 
	C2133.916260,738.400940 2140.666504,742.827393 2149.493896,740.480835 
	C2157.949463,738.233093 2161.133789,727.969055 2154.648926,722.117859 
	C2151.098877,718.914612 2146.191406,717.087769 2141.694580,715.094238 
	C2135.944092,712.544861 2129.922363,710.611206 2124.143066,708.121216 
	C2118.085205,705.511230 2113.912109,700.880615 2111.154785,694.466675 
z"/>
<path fill="#030303" opacity="1.000000" stroke="none" 
	d="
M782.689697,662.094421 
	C797.150696,669.005798 803.053894,681.322144 799.864746,697.245789 
	C797.179016,710.655945 785.320068,719.423035 769.140442,719.817932 
	C763.193481,719.963013 757.239990,719.841309 750.841858,719.841309 
	C750.841858,725.997192 750.841919,731.773438 750.841919,737.549683 
	C750.841919,743.186157 750.841858,748.822571 750.841858,754.814392 
	C744.380615,754.814392 738.170959,754.814392 731.719910,754.814392 
	C731.719910,723.229065 731.719910,691.675720 731.719910,659.661194 
	C743.615784,659.661194 755.370422,659.433594 767.109131,659.766968 
	C772.193481,659.911316 777.244995,661.212341 782.689697,662.094421 
M779.205078,697.430542 
	C782.911316,687.707336 780.349915,678.391602 772.516663,676.618286 
	C765.591187,675.050537 758.257935,675.284241 751.182861,674.728699 
	C751.182861,685.271423 751.182861,694.645081 751.182861,704.132996 
	C756.663269,704.132996 761.800781,704.220154 766.933899,704.107788 
	C771.814392,704.001099 776.014343,702.335388 779.205078,697.430542 
z"/>
<path fill="#030303" opacity="1.000000" stroke="none" 
	d="
M1797.418457,750.457153 
	C1791.732056,764.133606 1786.240356,777.478699 1780.723755,790.884644 
	C1773.787354,790.884644 1766.970459,790.884644 1759.423828,790.884644 
	C1760.174438,789.018311 1760.767212,787.399719 1761.466797,785.828613 
	C1765.789795,776.120728 1770.291992,766.487793 1774.352417,756.671753 
	C1775.227417,754.556213 1775.325195,751.460510 1774.446411,749.379578 
	C1765.281494,727.672607 1755.842896,706.081177 1746.484863,684.455811 
	C1745.970703,683.267456 1745.498413,682.061035 1744.719360,680.162842 
	C1751.638062,680.162842 1758.038696,679.978027 1764.409668,680.329346 
	C1765.587646,680.394348 1767.096924,682.439697 1767.690063,683.884399 
	C1773.485962,697.998962 1779.118042,712.180847 1784.803345,726.340942 
	C1785.232056,727.408569 1785.712158,728.455627 1786.535645,730.362732 
	C1792.955078,713.189087 1799.107056,696.730896 1805.218506,680.381104 
	C1812.266479,680.381104 1819.023315,680.381104 1826.441895,680.381104 
	C1816.715454,703.912109 1807.164307,727.018921 1797.418457,750.457153 
z"/>
<path fill="#030303" opacity="1.000000" stroke="none" 
	d="
M1999.894531,737.766968 
	C1990.514771,753.297241 1973.247559,759.748108 1955.116455,754.788269 
	C1939.306763,750.463379 1929.532471,736.672180 1929.484009,718.621582 
	C1929.429932,698.520996 1938.727661,685.073425 1955.794800,680.567566 
	C1976.882690,675.000061 1997.068359,684.921082 2002.224731,703.869812 
	C2003.702881,709.302002 2003.559204,715.175476 2004.229980,721.516113 
	C1993.770386,721.516113 1984.668701,721.516113 1975.567017,721.516113 
	C1966.629883,721.516113 1957.692627,721.516113 1948.767578,721.516113 
	C1948.801758,731.513794 1953.130737,737.944031 1960.774414,739.968628 
	C1970.106323,742.440430 1977.034668,739.363647 1982.023071,730.723022 
	C1982.534912,729.836487 1983.893433,728.940125 1984.884399,728.911133 
	C1990.692749,728.741028 1996.508667,728.827515 2003.171265,728.827515 
	C2002.002686,732.029541 2001.018677,734.725830 1999.894531,737.766968 
M1984.325562,709.856873 
	C1983.025024,699.457092 1975.391602,693.630066 1964.838867,694.523499 
	C1956.560547,695.224426 1947.605713,702.755859 1949.118652,712.843689 
	C1960.059448,712.843689 1971.045044,712.891052 1982.028320,712.748779 
	C1982.857422,712.738037 1983.669067,711.377319 1984.325562,709.856873 
z"/>
<path fill="#030303" opacity="1.000000" stroke="none" 
	d="
M1345.860352,754.011108 
	C1327.141724,759.660583 1308.912964,754.193665 1299.560669,740.322083 
	C1289.307373,725.114197 1291.541382,701.473877 1304.391357,689.203796 
	C1317.176636,676.995544 1341.245728,675.581055 1355.725098,686.457153 
	C1368.231812,695.851501 1371.519531,709.105652 1369.817505,723.802612 
	C1368.122803,738.436768 1360.106323,748.582092 1345.860352,754.011108 
M1323.336426,737.550476 
	C1333.978271,741.573914 1343.725464,738.563110 1348.105103,729.525696 
	C1351.861572,721.774048 1351.843994,713.682129 1348.119995,705.964417 
	C1342.371704,694.052002 1325.572632,692.506836 1317.187622,702.744629 
	C1311.018066,710.277405 1310.151123,730.984375 1323.336426,737.550476 
z"/>
<path fill="#030303" opacity="1.000000" stroke="none" 
	d="
M871.955688,722.703064 
	C871.092651,710.538879 873.041077,699.648438 881.409973,690.752258 
	C892.634766,678.820190 912.759583,675.589355 928.527649,683.090698 
	C943.244507,690.091858 950.600281,705.405212 948.226929,724.101318 
	C946.103271,740.830078 935.151306,752.300842 918.148315,755.605103 
	C901.083435,758.921387 883.974426,751.842590 876.583740,737.763062 
	C874.250427,733.317932 873.472900,728.056091 871.955688,722.703064 
M894.911255,731.412109 
	C899.936279,738.470947 906.913208,740.774902 915.039612,738.773865 
	C922.913391,736.835083 927.596863,731.231262 928.594971,723.304504 
	C929.163391,718.789917 928.924438,713.951111 927.927795,709.509888 
	C926.041321,701.104065 918.629761,695.925354 909.913574,696.001648 
	C901.435425,696.075867 894.089111,701.776550 892.149536,710.031311 
	C890.466248,717.195374 890.792725,724.214600 894.911255,731.412109 
z"/>
<path fill="#030303" opacity="1.000000" stroke="none" 
	d="
M1047.393555,679.241028 
	C1061.947266,678.815979 1074.269653,682.523193 1082.304565,695.100708 
	C1087.422363,703.111694 1089.015381,711.898254 1086.871948,721.736755 
	C1068.539551,721.736755 1050.453979,721.736755 1032.334229,721.736755 
	C1033.455322,733.792969 1038.260742,739.389099 1048.222168,740.676575 
	C1056.461792,741.741516 1063.149414,737.527771 1066.495728,729.018433 
	C1073.044434,729.018433 1079.669678,729.018433 1086.300293,729.018433 
	C1085.924683,740.070801 1073.959961,754.349976 1056.026978,755.945129 
	C1040.971802,757.284241 1027.468140,753.723145 1019.249878,740.038818 
	C1010.635010,725.694275 1010.896118,710.476135 1018.907776,695.856506 
	C1024.841675,685.028320 1035.092773,680.581787 1047.393555,679.241028 
M1032.632324,710.027283 
	C1033.238525,710.965515 1033.832764,712.712646 1034.452881,712.721863 
	C1045.530762,712.887268 1056.612061,712.841980 1067.630859,712.841980 
	C1068.986084,703.580383 1063.996826,696.653687 1055.060547,694.921448 
	C1043.930542,692.763977 1035.275269,698.334412 1032.632324,710.027283 
z"/>
<path fill="#010101" opacity="1.000000" stroke="none" 
	d="
M1449.023071,755.169556 
	C1446.214722,755.169556 1443.899292,755.169556 1440.998535,755.169556 
	C1440.998535,746.735168 1440.998535,738.469727 1440.998535,730.204224 
	C1440.998535,724.876465 1441.058228,719.547974 1440.986206,714.221191 
	C1440.823242,702.167725 1434.571167,695.120544 1424.042969,695.027405 
	C1413.483521,694.933960 1406.371948,702.393066 1406.209229,714.170654 
	C1406.034302,726.821594 1406.169434,739.476868 1406.169067,752.130249 
	C1406.169067,752.940369 1406.168945,753.750488 1406.168945,754.864746 
	C1399.854858,754.864746 1393.766479,754.864746 1387.336792,754.864746 
	C1387.336792,730.239197 1387.336792,705.396484 1387.336792,680.391907 
	C1393.571899,680.391907 1399.645752,680.391907 1406.165039,680.391907 
	C1406.165039,684.484741 1406.165039,688.362610 1406.165039,693.799011 
	C1411.644775,684.536011 1418.795410,680.277344 1427.845459,679.184509 
	C1445.438477,677.060059 1458.993652,688.286804 1459.777954,706.694641 
	C1460.456787,722.625549 1459.919067,738.608215 1459.919067,755.169556 
	C1456.365112,755.169556 1452.940430,755.169556 1449.023071,755.169556 
z"/>
<path fill="#282932" opacity="1.000000" stroke="none" 
	d="
M245.565643,323.531006 
	C256.797852,317.002167 267.989349,311.306793 280.656616,308.898102 
	C237.661957,338.558746 220.492676,375.625122 247.075867,425.930603 
	C233.588669,423.575317 221.265701,419.779297 209.541626,414.295319 
	C194.510361,407.264374 197.189651,410.456726 199.672913,394.861328 
	C203.042725,373.698334 210.895157,354.444031 226.316696,339.104126 
	C232.052170,333.399017 238.919586,328.831818 245.565643,323.531006 
z"/>
<path fill="#282932" opacity="1.000000" stroke="none" 
	d="
M303.212341,358.773407 
	C315.954742,364.969940 328.950958,370.433807 343.321991,371.356506 
	C372.861786,373.253265 396.607727,362.742401 413.653168,338.142670 
	C415.625305,335.296509 417.419128,332.326813 419.568573,328.990692 
	C425.233398,345.080139 428.397156,361.109833 428.848358,377.616577 
	C428.890289,379.150970 427.121826,381.493378 425.605896,382.201294 
	C382.711761,402.232330 335.449249,393.698700 302.667419,359.682617 
	C302.889465,359.064087 303.050903,358.918762 303.212341,358.773407 
z"/>
<path fill="#040404" opacity="1.000000" stroke="none" 
	d="
M1162.462158,741.213928 
	C1159.677979,748.792664 1154.097778,752.874939 1147.078857,754.738770 
	C1137.189209,757.364929 1127.200562,757.027710 1117.745239,752.875977 
	C1108.430420,748.785950 1103.020996,741.511475 1101.670532,731.008728 
	C1107.865601,731.008728 1113.661011,731.008728 1119.457031,731.014404 
	C1123.689331,740.217041 1128.705322,743.413208 1137.435547,742.431335 
	C1141.436279,741.981323 1144.381104,740.142517 1145.272339,735.965149 
	C1146.187622,731.674988 1144.061768,728.680481 1140.390503,727.194153 
	C1136.106934,725.460022 1131.556641,724.370850 1127.095337,723.095337 
	C1124.062866,722.228333 1120.941895,721.658386 1117.934326,720.719177 
	C1107.029053,717.313843 1102.075317,711.088074 1102.155273,701.088135 
	C1102.233398,691.314392 1108.014038,683.813843 1118.319946,680.949890 
	C1130.223633,677.641968 1141.770874,678.276489 1152.030273,686.002441 
	C1157.994507,690.493835 1161.221680,696.723999 1162.428223,704.839111 
	C1156.871338,704.839111 1151.633667,704.981445 1146.417603,704.709229 
	C1145.467773,704.659668 1144.293091,703.065918 1143.755127,701.932251 
	C1140.459229,694.984863 1134.565430,691.702332 1127.121338,693.089905 
	C1123.465454,693.771301 1120.611084,695.601074 1119.932617,699.666565 
	C1119.246338,703.778625 1121.210815,706.560059 1124.799316,707.932068 
	C1128.967407,709.525696 1133.323364,710.639160 1137.621582,711.878235 
	C1140.810303,712.797485 1144.092407,713.417847 1147.237427,714.459595 
	C1160.642944,718.899719 1165.230957,726.843933 1162.462158,741.213928 
z"/>
<path fill="#040404" opacity="1.000000" stroke="none" 
	d="
M1191.755249,730.824097 
	C1194.875732,730.595398 1196.469116,731.005798 1197.597900,734.226379 
	C1200.068481,741.274475 1210.927612,745.193298 1217.432861,741.458496 
	C1219.525146,740.257141 1221.567627,737.168335 1221.687256,734.842957 
	C1221.804077,732.569397 1220.010620,729.049683 1218.049438,728.048645 
	C1213.540649,725.747375 1208.438843,724.583130 1203.540283,723.079590 
	C1200.686890,722.203857 1197.723145,721.686523 1194.874756,720.797302 
	C1183.245728,717.166870 1178.614014,711.246643 1178.824951,700.456299 
	C1179.015503,690.710571 1185.262939,683.233032 1195.973877,680.548645 
	C1205.235718,678.227417 1214.463745,678.444641 1223.251343,682.659241 
	C1232.357666,687.026733 1237.110107,694.600403 1239.026245,704.603638 
	C1232.971436,704.603638 1227.216431,704.603638 1221.408325,704.603638 
	C1216.798340,695.016296 1212.853271,692.260559 1204.687378,692.991150 
	C1200.229614,693.389954 1197.029663,695.476257 1196.300049,700.076782 
	C1195.603271,704.470947 1198.371216,707.098694 1202.072754,708.279602 
	C1209.018188,710.495422 1216.159546,712.090332 1223.135986,714.217163 
	C1237.060913,718.462524 1243.367432,729.346802 1238.818237,741.643982 
	C1235.595581,750.355103 1228.320435,754.669067 1219.658936,755.514709 
	C1212.826172,756.181885 1205.597778,755.907410 1198.922241,754.390625 
	C1187.132080,751.711731 1180.269165,743.596619 1177.952637,730.824097 
	C1182.544189,730.824097 1186.916992,730.824097 1191.755249,730.824097 
z"/>
<path fill="#282932" opacity="1.000000" stroke="none" 
	d="
M289.239197,234.655670 
	C279.684601,229.191879 269.470856,228.248276 258.095123,228.072159 
	C268.357697,215.781158 275.725739,202.167938 289.171143,193.832108 
	C311.171997,210.082077 328.601654,229.422485 335.458893,256.499634 
	C340.322235,275.703369 339.230835,294.827454 333.907532,314.081299 
	C331.823364,280.389374 318.733643,253.089539 289.239197,234.655670 
z"/>
<path fill="#030303" opacity="1.000000" stroke="none" 
	d="
M987.515686,717.000488 
	C987.515686,729.952026 987.515686,742.403625 987.515686,754.975647 
	C980.891907,754.975647 974.781860,754.975647 968.240112,754.975647 
	C968.240112,735.545410 968.240112,716.305420 968.240112,696.597717 
	C964.918762,696.597717 962.016174,696.597717 958.801941,696.597717 
	C958.801941,690.909912 958.801941,685.694275 958.801941,680.245911 
	C961.876160,680.245911 964.674561,680.245911 967.881287,680.245911 
	C968.318420,670.434326 969.945984,661.191895 978.895630,655.401306 
	C985.931274,650.849121 993.784790,650.346069 1002.178528,650.692383 
	C1002.178528,656.241577 1002.178528,661.476685 1002.178528,666.011292 
	C997.996155,667.646057 993.477844,668.535828 990.169678,671.030518 
	C988.153137,672.551208 988.000488,676.543640 986.804382,680.026489 
	C992.462952,680.026489 997.088135,680.026489 1002.113525,680.026489 
	C1002.113525,685.538696 1002.113525,690.737793 1002.113525,696.361694 
	C997.484436,696.361694 992.886414,696.361694 987.515686,696.361694 
	C987.515686,703.335693 987.515686,709.918091 987.515686,717.000488 
z"/>
<path fill="#030303" opacity="1.000000" stroke="none" 
	d="
M2463.053223,681.287537 
	C2463.153320,686.540100 2463.153320,691.324036 2463.153320,696.421204 
	C2457.573975,696.421204 2452.451172,696.421204 2446.515137,696.421204 
	C2446.515137,701.289856 2446.493408,705.870605 2446.520264,710.451111 
	C2446.558105,716.937927 2446.400146,723.437317 2446.755371,729.907776 
	C2447.112061,736.406677 2448.842529,738.028931 2455.237549,738.646973 
	C2457.840088,738.898438 2460.487061,738.688477 2463.311523,738.688477 
	C2463.311523,744.376221 2463.311523,749.483948 2463.311523,755.428772 
	C2457.061523,755.093384 2450.887939,755.376343 2444.958008,754.308777 
	C2434.423828,752.412415 2428.879883,746.443665 2427.971924,735.737488 
	C2427.144531,725.982422 2427.369385,716.137024 2427.167725,706.330688 
	C2427.103271,703.203186 2427.157715,700.073303 2427.157715,696.537842 
	C2423.648438,696.537842 2420.558350,696.537842 2417.235840,696.537842 
	C2417.235840,691.033691 2417.235840,685.934937 2417.235840,680.450562 
	C2420.252686,680.450562 2423.341553,680.450562 2426.965088,680.450562 
	C2426.965088,674.214111 2426.965088,668.320679 2426.965088,662.136047 
	C2433.698730,662.136047 2439.901855,662.136047 2446.467529,662.136047 
	C2446.467529,668.096436 2446.467529,673.869080 2446.467529,679.759216 
	C2452.195557,680.127380 2457.574219,680.473083 2463.053223,681.287537 
z"/>
<path fill="#000000" opacity="1.000000" stroke="none" 
	d="
M1593.999756,728.000000 
	C1593.999756,737.476013 1593.999756,746.452087 1593.999756,755.713074 
	C1587.380615,755.713074 1580.976196,755.713074 1574.283691,755.713074 
	C1574.283691,722.374695 1574.283691,688.974548 1574.283691,655.286987 
	C1580.618408,655.286987 1587.024048,655.286987 1593.999756,655.286987 
	C1593.999756,679.315063 1593.999756,703.407532 1593.999756,728.000000 
z"/>
<path fill="#030303" opacity="1.000000" stroke="none" 
	d="
M2020.481934,721.999634 
	C2020.481934,707.893127 2020.481934,694.286682 2020.481934,680.420898 
	C2027.017944,680.420898 2033.086426,680.420898 2039.772217,680.420898 
	C2039.772217,684.435730 2039.772217,688.448547 2039.772217,693.699646 
	C2046.764038,684.134766 2054.928223,679.245178 2065.896973,679.020447 
	C2065.896973,685.886902 2065.896973,692.612305 2065.896973,699.889160 
	C2062.992920,699.889160 2060.208008,699.760376 2057.438721,699.911743 
	C2046.461182,700.511902 2040.220703,706.622559 2039.932129,717.571228 
	C2039.656006,728.042725 2039.853760,738.526672 2039.843994,749.005188 
	C2039.842285,750.814636 2039.843872,752.624084 2039.843872,754.803345 
	C2033.403687,754.803345 2027.193115,754.803345 2020.481934,754.803345 
	C2020.481934,744.054382 2020.481934,733.276978 2020.481934,721.999634 
z"/>
<path fill="#030303" opacity="1.000000" stroke="none" 
	d="
M830.941528,755.172791 
	C825.810730,755.172791 821.172546,755.172791 816.266174,755.172791 
	C816.266174,730.206421 816.266174,705.476807 816.266174,680.452393 
	C822.339050,680.452393 828.408508,680.452393 834.851074,680.452393 
	C834.851074,684.333923 834.851074,688.255676 834.851074,692.732788 
	C839.160767,689.176697 842.637939,685.386475 846.908630,683.041565 
	C851.221375,680.673523 856.320801,679.738586 861.649902,677.987061 
	C861.649902,686.004761 861.649902,692.604797 861.649902,699.882202 
	C858.741028,699.882202 855.966248,699.765930 853.203918,699.902710 
	C842.475220,700.433899 836.272583,705.784912 835.645264,716.423523 
	C834.960449,728.037415 835.174377,739.711731 835.249695,751.358032 
	C835.269165,754.374695 834.588867,755.772034 830.941528,755.172791 
z"/>
<path fill="#0A0A0A" opacity="1.000000" stroke="none" 
	d="
M1257.138428,742.983521 
	C1257.138428,721.895020 1257.138428,701.302917 1257.138428,680.426086 
	C1263.644409,680.426086 1269.732666,680.426086 1276.184937,680.426086 
	C1276.184937,705.062744 1276.184937,729.764099 1276.184937,754.829956 
	C1270.059814,754.829956 1263.863892,754.829956 1257.138428,754.829956 
	C1257.138428,751.039307 1257.138428,747.259705 1257.138428,742.983521 
z"/>
<path fill="#010101" opacity="1.000000" stroke="none" 
	d="
M2195.832275,687.082153 
	C2195.832275,684.627136 2195.832275,682.661926 2195.832275,680.431519 
	C2202.261963,680.431519 2208.329102,680.431519 2214.699707,680.431519 
	C2214.699707,705.141968 2214.699707,729.826050 2214.699707,754.839600 
	C2208.629639,754.839600 2202.449219,754.839600 2195.832275,754.839600 
	C2195.832275,732.360779 2195.832275,709.966309 2195.832275,687.082153 
z"/>
<path fill="#060606" opacity="1.000000" stroke="none" 
	d="
M1277.224365,652.982666 
	C1279.830444,657.918884 1279.655884,662.244995 1275.811279,666.026550 
	C1272.398315,669.383667 1265.565063,670.263733 1260.912109,667.939087 
	C1256.791626,665.880554 1254.820923,662.499084 1255.152954,657.850830 
	C1255.738892,649.646240 1266.310303,645.242249 1274.064941,650.027588 
	C1275.167603,650.708069 1276.030884,651.776123 1277.224365,652.982666 
z"/>
<path fill="#030303" opacity="1.000000" stroke="none" 
	d="
M2213.582520,666.704224 
	C2208.688477,669.822021 2203.533447,670.402283 2199.187744,667.599121 
	C2196.550293,665.898132 2193.975830,662.010071 2193.889160,659.031433 
	C2193.802734,656.053040 2196.166260,652.117737 2198.670654,650.140076 
	C2203.419189,646.390198 2211.229492,647.841919 2214.953125,652.148499 
	C2218.432617,656.172485 2218.029785,661.604431 2213.582520,666.704224 
z"/>
<path fill="#282932" opacity="1.000000" stroke="none" 
	d="
M302.470520,359.409088 
	C301.867676,359.144196 301.522308,358.679626 301.176941,358.215057 
	C301.750549,358.219879 302.324158,358.224701 303.055054,358.501465 
	C303.050903,358.918762 302.889465,359.064087 302.470520,359.409088 
z"/>
<path fill="#252525" opacity="1.000000" stroke="none" 
	d="
M477.810150,123.236069 
	C477.594421,123.110931 477.447632,122.896667 477.300842,122.682396 
	C477.525238,122.632767 477.749664,122.583145 477.998779,122.753799 
	C478.023529,122.974068 477.879059,123.146950 477.810150,123.236069 
z"/>
<path fill="#FDFDFD" opacity="1.000000" stroke="none" 
	d="
M2277.631104,738.037537 
	C2267.884521,740.645386 2259.593506,738.120300 2254.993164,731.359741 
	C2249.677734,723.548889 2249.946289,710.374634 2255.568848,703.089539 
	C2260.464111,696.747070 2269.601074,694.149292 2277.676758,697.185242 
	C2286.104492,700.353577 2289.972168,707.018250 2290.436523,715.694458 
	C2290.968018,725.622986 2287.851807,733.700317 2277.631104,738.037537 
z"/>
<path fill="#FDFDFD" opacity="1.000000" stroke="none" 
	d="
M1870.402832,737.988525 
	C1858.045654,731.622192 1853.845459,717.243408 1860.680542,705.539917 
	C1864.781494,698.517822 1871.176636,695.554321 1879.126953,696.153015 
	C1887.178589,696.759277 1892.816040,700.971252 1895.569092,708.598206 
	C1900.330200,721.788940 1894.672119,735.590088 1883.034668,738.304199 
	C1879.179810,739.203186 1874.885254,738.216492 1870.402832,737.988525 
z"/>
<path fill="#FDFDFD" opacity="1.000000" stroke="none" 
	d="
M1515.037842,739.154785 
	C1501.737061,738.076172 1495.285278,730.076904 1495.843262,715.898315 
	C1496.319092,703.805725 1504.204956,695.849792 1515.565186,696.001343 
	C1526.532837,696.147644 1534.609741,704.419250 1534.998169,715.902832 
	C1535.470825,729.876282 1528.468872,738.218140 1515.037842,739.154785 
z"/>
<path fill="#FDFDFD" opacity="1.000000" stroke="none" 
	d="
M779.055054,697.786011 
	C776.014343,702.335388 771.814392,704.001099 766.933899,704.107788 
	C761.800781,704.220154 756.663269,704.132996 751.182861,704.132996 
	C751.182861,694.645081 751.182861,685.271423 751.182861,674.728699 
	C758.257935,675.284241 765.591187,675.050537 772.516663,676.618286 
	C780.349915,678.391602 782.911316,687.707336 779.055054,697.786011 
z"/>
<path fill="#F7F7F7" opacity="1.000000" stroke="none" 
	d="
M1984.407227,710.250488 
	C1983.669067,711.377319 1982.857422,712.738037 1982.028320,712.748779 
	C1971.045044,712.891052 1960.059448,712.843689 1949.118652,712.843689 
	C1947.605713,702.755859 1956.560547,695.224426 1964.838867,694.523499 
	C1975.391602,693.630066 1983.025024,699.457092 1984.407227,710.250488 
z"/>
<path fill="#FDFDFD" opacity="1.000000" stroke="none" 
	d="
M1323.010986,737.337402 
	C1310.151123,730.984375 1311.018066,710.277405 1317.187622,702.744629 
	C1325.572632,692.506836 1342.371704,694.052002 1348.119995,705.964417 
	C1351.843994,713.682129 1351.861572,721.774048 1348.105103,729.525696 
	C1343.725464,738.563110 1333.978271,741.573914 1323.010986,737.337402 
z"/>
<path fill="#FDFDFD" opacity="1.000000" stroke="none" 
	d="
M894.678223,731.119751 
	C890.792725,724.214600 890.466248,717.195374 892.149536,710.031311 
	C894.089111,701.776550 901.435425,696.075867 909.913574,696.001648 
	C918.629761,695.925354 926.041321,701.104065 927.927795,709.509888 
	C928.924438,713.951111 929.163391,718.789917 928.594971,723.304504 
	C927.596863,731.231262 922.913391,736.835083 915.039612,738.773865 
	C906.913208,740.774902 899.936279,738.470947 894.678223,731.119751 
z"/>
<path fill="#F7F7F7" opacity="1.000000" stroke="none" 
	d="
M1032.717651,709.636719 
	C1035.275269,698.334412 1043.930542,692.763977 1055.060547,694.921448 
	C1063.996826,696.653687 1068.986084,703.580383 1067.630859,712.841980 
	C1056.612061,712.841980 1045.530762,712.887268 1034.452881,712.721863 
	C1033.832764,712.712646 1033.238525,710.965515 1032.717651,709.636719 
z"/>
</svg>